<svg xmlns="http://www.w3.org/2000/svg" xmlns:xlink="http://www.w3.org/1999/xlink" width="150" zoomAndPan="magnify" viewBox="0 0 112.5 30.000001" height="40" preserveAspectRatio="xMidYMid meet" version="1.0"><defs><g/><clipPath id="id1"><path d="M 20.191406 6.191406 L 44.515625 6.191406 L 44.515625 25.882812 L 20.191406 25.882812 Z M 20.191406 6.191406 " clip-rule="nonzero"/></clipPath><clipPath id="id2"><path d="M 41.578125 17.035156 C 41.578125 16.226562 42.234375 15.574219 43.050781 15.574219 C 43.863281 15.574219 44.515625 16.226562 44.515625 17.035156 C 44.515625 17.84375 43.859375 18.496094 43.050781 18.496094 C 42.796875 18.496094 42.554688 18.433594 42.347656 18.320312 L 41.289062 19.871094 C 41.535156 20.089844 41.695312 20.410156 41.695312 20.769531 C 41.695312 21.429688 41.160156 21.964844 40.496094 21.964844 C 39.835938 21.964844 39.300781 21.429688 39.300781 20.769531 C 39.300781 20.320312 39.550781 19.921875 39.925781 19.722656 L 39.628906 18.96875 C 39.558594 18.984375 39.488281 18.992188 39.417969 18.992188 C 38.890625 18.992188 38.46875 18.566406 38.46875 18.046875 C 38.46875 17.523438 38.894531 17.097656 39.417969 17.097656 C 39.503906 17.097656 39.589844 17.109375 39.667969 17.132812 L 40.285156 15.769531 C 40.132812 15.652344 40.035156 15.472656 40.035156 15.269531 C 40.035156 14.917969 40.320312 14.636719 40.671875 14.636719 C 40.824219 14.636719 40.964844 14.6875 41.074219 14.78125 L 42.179688 13.945312 C 42.101562 13.804688 42.054688 13.632812 42.054688 13.457031 C 42.054688 13.164062 42.183594 12.894531 42.382812 12.710938 L 41.703125 11.710938 C 41.574219 11.773438 41.429688 11.804688 41.28125 11.804688 C 40.925781 11.804688 40.613281 11.617188 40.445312 11.339844 L 39.410156 11.773438 C 39.410156 11.789062 39.414062 11.804688 39.414062 11.8125 C 39.414062 12.050781 39.238281 12.246094 39.011719 12.285156 L 38.871094 13.285156 C 39.21875 13.394531 39.46875 13.71875 39.46875 14.101562 C 39.46875 14.570312 39.082031 14.957031 38.609375 14.957031 C 38.292969 14.957031 38.015625 14.78125 37.867188 14.527344 L 36.636719 14.976562 C 36.636719 14.980469 36.636719 14.984375 36.636719 14.992188 C 36.636719 15.246094 36.433594 15.449219 36.179688 15.449219 C 36.152344 15.449219 36.125 15.445312 36.097656 15.441406 L 35.472656 16.570312 C 35.546875 16.640625 35.613281 16.722656 35.65625 16.816406 L 37.378906 16.453125 C 37.40625 16.226562 37.597656 16.050781 37.832031 16.050781 C 38.085938 16.050781 38.289062 16.253906 38.289062 16.507812 C 38.289062 16.742188 38.113281 16.933594 37.886719 16.960938 L 37.378906 19.371094 C 37.914062 19.542969 38.300781 20.042969 38.300781 20.636719 C 38.300781 21.371094 37.703125 21.96875 36.960938 21.96875 C 36.941406 21.96875 36.917969 21.96875 36.894531 21.96875 L 36.695312 23.203125 C 36.875 23.285156 37.003906 23.472656 37.003906 23.6875 C 37.003906 23.925781 36.84375 24.125 36.625 24.195312 L 36.644531 25.128906 C 36.785156 25.179688 36.886719 25.320312 36.886719 25.480469 C 36.886719 25.6875 36.71875 25.855469 36.507812 25.855469 C 36.300781 25.855469 36.132812 25.6875 36.132812 25.480469 C 36.132812 25.441406 36.136719 25.402344 36.148438 25.367188 L 35.488281 24.816406 C 35.40625 24.871094 35.304688 24.90625 35.191406 24.90625 C 34.898438 24.90625 34.664062 24.671875 34.664062 24.382812 C 34.664062 24.175781 34.785156 24 34.960938 23.914062 L 34.84375 23.285156 C 34.839844 23.285156 34.828125 23.285156 34.820312 23.285156 C 34.289062 23.285156 33.859375 22.859375 33.859375 22.332031 C 33.859375 21.804688 34.289062 21.375 34.820312 21.375 C 35.074219 21.375 35.300781 21.472656 35.46875 21.628906 L 35.835938 21.339844 C 35.703125 21.132812 35.628906 20.890625 35.628906 20.628906 C 35.628906 20.375 35.699219 20.136719 35.824219 19.933594 L 34.886719 19.21875 C 34.816406 19.269531 34.726562 19.296875 34.632812 19.296875 C 34.53125 19.296875 34.4375 19.265625 34.363281 19.207031 L 33.769531 19.617188 C 33.875 19.808594 33.929688 20.027344 33.929688 20.261719 C 33.929688 21.007812 33.324219 21.609375 32.578125 21.609375 C 31.941406 21.609375 31.414062 21.175781 31.265625 20.589844 L 30.253906 20.730469 C 30.242188 21.207031 29.847656 21.59375 29.363281 21.59375 C 28.871094 21.59375 28.476562 21.195312 28.476562 20.707031 C 28.476562 20.21875 28.871094 19.820312 29.363281 19.820312 C 29.453125 19.820312 29.542969 19.835938 29.621094 19.859375 L 30.703125 17.679688 C 30.425781 17.492188 30.238281 17.191406 30.203125 16.847656 L 29.3125 16.816406 C 29.246094 16.980469 29.089844 17.097656 28.898438 17.097656 C 28.851562 17.097656 28.804688 17.089844 28.757812 17.074219 L 28.042969 18 C 28.269531 18.21875 28.402344 18.519531 28.402344 18.855469 C 28.402344 19.515625 27.863281 20.054688 27.199219 20.054688 C 26.636719 20.054688 26.164062 19.671875 26.03125 19.15625 L 25.203125 19.265625 C 25.1875 19.734375 24.796875 20.117188 24.320312 20.117188 C 23.832031 20.117188 23.441406 19.722656 23.441406 19.238281 C 23.441406 18.777344 23.796875 18.402344 24.25 18.363281 L 24.328125 17.398438 C 24.167969 17.332031 24.058594 17.175781 24.058594 16.988281 C 24.058594 16.746094 24.261719 16.542969 24.511719 16.542969 C 24.566406 16.542969 24.617188 16.550781 24.664062 16.566406 L 26.355469 14.496094 C 26.3125 14.429688 26.285156 14.34375 26.285156 14.257812 C 26.285156 14.136719 26.335938 14.027344 26.410156 13.949219 L 26.152344 13.445312 C 26.019531 13.492188 25.878906 13.519531 25.730469 13.519531 C 25.519531 13.519531 25.320312 13.464844 25.148438 13.371094 L 24.132812 14.773438 C 24.238281 14.890625 24.300781 15.050781 24.300781 15.222656 C 24.300781 15.59375 24 15.894531 23.628906 15.894531 C 23.554688 15.894531 23.476562 15.882812 23.410156 15.855469 L 22.347656 17.582031 C 22.589844 17.777344 22.742188 18.074219 22.742188 18.410156 C 22.742188 19 22.261719 19.480469 21.667969 19.480469 C 21.074219 19.480469 20.59375 19 20.59375 18.410156 C 20.59375 17.925781 20.914062 17.519531 21.351562 17.386719 L 21.269531 16.875 C 21.261719 16.875 21.257812 16.875 21.25 16.875 C 20.699219 16.875 20.253906 16.433594 20.253906 15.882812 C 20.253906 15.335938 20.695312 14.890625 21.242188 14.886719 L 21.304688 14.445312 C 20.664062 14.292969 20.1875 13.714844 20.1875 13.03125 C 20.1875 12.226562 20.84375 11.578125 21.648438 11.578125 C 22.316406 11.578125 22.882812 12.023438 23.054688 12.640625 L 24.523438 12.378906 C 24.523438 12.355469 24.523438 12.335938 24.523438 12.316406 C 24.523438 12.113281 24.578125 11.917969 24.664062 11.75 L 23.578125 10.992188 C 23.460938 11.105469 23.296875 11.171875 23.117188 11.171875 C 22.746094 11.171875 22.4375 10.867188 22.4375 10.496094 C 22.4375 10.121094 22.746094 9.816406 23.117188 9.816406 C 23.492188 9.816406 23.800781 10.121094 23.800781 10.496094 C 23.800781 10.589844 23.78125 10.675781 23.746094 10.753906 L 24.832031 11.511719 C 24.988281 11.339844 25.195312 11.210938 25.425781 11.152344 L 25.421875 10.054688 C 25.011719 9.988281 24.703125 9.636719 24.703125 9.210938 C 24.703125 8.742188 25.089844 8.355469 25.5625 8.355469 C 25.839844 8.355469 26.085938 8.488281 26.242188 8.691406 L 27.613281 7.976562 C 27.578125 7.875 27.5625 7.769531 27.5625 7.65625 C 27.5625 7.117188 28 6.675781 28.542969 6.675781 C 29.085938 6.675781 29.527344 7.113281 29.527344 7.65625 C 29.527344 8.011719 29.332031 8.328125 29.042969 8.5 L 29.496094 9.613281 C 29.566406 9.597656 29.640625 9.589844 29.71875 9.589844 C 29.898438 9.589844 30.066406 9.636719 30.210938 9.722656 L 31.238281 8.480469 C 31.003906 8.238281 30.855469 7.910156 30.855469 7.550781 C 30.855469 6.816406 31.453125 6.21875 32.195312 6.21875 C 32.933594 6.21875 33.535156 6.8125 33.535156 7.550781 C 33.535156 7.878906 33.414062 8.179688 33.214844 8.410156 L 34.238281 9.480469 C 34.296875 9.449219 34.367188 9.433594 34.4375 9.433594 C 34.457031 9.433594 34.476562 9.433594 34.492188 9.4375 L 35.035156 8.265625 C 34.8125 8.113281 34.664062 7.855469 34.664062 7.5625 C 34.664062 7.089844 35.050781 6.707031 35.523438 6.707031 C 35.996094 6.707031 36.378906 7.089844 36.378906 7.5625 C 36.378906 7.667969 36.363281 7.769531 36.328125 7.859375 L 37.191406 8.359375 C 37.410156 8.078125 37.753906 7.894531 38.132812 7.894531 C 38.789062 7.894531 39.316406 8.421875 39.316406 9.070312 C 39.316406 9.230469 39.289062 9.382812 39.230469 9.515625 L 40.507812 10.226562 C 40.6875 10 40.964844 9.847656 41.285156 9.847656 C 41.824219 9.847656 42.261719 10.285156 42.261719 10.824219 C 42.261719 11.105469 42.140625 11.363281 41.949219 11.539062 L 42.628906 12.539062 C 42.761719 12.472656 42.914062 12.433594 43.070312 12.433594 C 43.632812 12.433594 44.085938 12.886719 44.085938 13.445312 C 44.085938 14.003906 43.632812 14.453125 43.070312 14.453125 C 42.796875 14.453125 42.542969 14.34375 42.359375 14.164062 L 41.257812 15 C 41.292969 15.078125 41.308594 15.167969 41.308594 15.257812 C 41.308594 15.605469 41.027344 15.890625 40.675781 15.890625 C 40.632812 15.890625 40.589844 15.886719 40.554688 15.878906 L 39.9375 17.242188 C 40.199219 17.410156 40.371094 17.703125 40.371094 18.035156 C 40.371094 18.382812 40.183594 18.6875 39.902344 18.855469 L 40.203125 19.605469 C 40.300781 19.582031 40.398438 19.570312 40.503906 19.570312 C 40.703125 19.570312 40.890625 19.617188 41.054688 19.703125 L 42.113281 18.148438 C 41.789062 17.882812 41.585938 17.480469 41.585938 17.027344 Z M 25.714844 11.121094 L 25.710938 10.058594 C 26.117188 9.992188 26.421875 9.636719 26.421875 9.214844 C 26.421875 9.125 26.40625 9.035156 26.382812 8.953125 L 27.753906 8.234375 C 27.929688 8.480469 28.222656 8.640625 28.546875 8.640625 C 28.625 8.640625 28.703125 8.632812 28.777344 8.613281 L 29.230469 9.726562 C 28.953125 9.894531 28.761719 10.199219 28.761719 10.546875 C 28.761719 10.96875 29.039062 11.328125 29.421875 11.457031 L 29.214844 12.660156 C 29.191406 12.660156 29.164062 12.65625 29.132812 12.65625 C 28.386719 12.65625 27.78125 13.261719 27.78125 14.007812 C 27.78125 14.753906 28.386719 15.355469 29.132812 15.355469 C 29.84375 15.355469 30.425781 14.808594 30.484375 14.117188 L 31.265625 14.09375 C 31.328125 14.261719 31.492188 14.382812 31.683594 14.382812 C 31.820312 14.382812 31.941406 14.324219 32.027344 14.226562 L 33.050781 14.632812 C 33.039062 14.691406 33.03125 14.753906 33.03125 14.8125 C 33.03125 15.285156 33.421875 15.675781 33.898438 15.675781 C 34.375 15.675781 34.761719 15.285156 34.761719 14.8125 C 34.761719 14.605469 34.6875 14.414062 34.566406 14.261719 L 35.652344 13.011719 C 35.839844 13.136719 36.066406 13.210938 36.308594 13.210938 C 36.960938 13.210938 37.492188 12.683594 37.492188 12.03125 C 37.492188 11.382812 36.960938 10.855469 36.308594 10.855469 C 36.0625 10.855469 35.832031 10.929688 35.644531 11.058594 L 34.835938 10.132812 C 34.875 10.066406 34.898438 9.984375 34.898438 9.898438 C 34.898438 9.765625 34.84375 9.644531 34.75 9.558594 L 35.292969 8.386719 C 35.363281 8.40625 35.4375 8.417969 35.515625 8.417969 C 35.78125 8.417969 36.015625 8.296875 36.171875 8.109375 L 37.039062 8.609375 C 36.976562 8.75 36.945312 8.90625 36.945312 9.070312 C 36.945312 9.722656 37.472656 10.25 38.128906 10.25 C 38.191406 10.25 38.253906 10.246094 38.316406 10.234375 L 38.65625 11.40625 C 38.527344 11.492188 38.445312 11.636719 38.445312 11.804688 C 38.445312 11.996094 38.558594 12.15625 38.714844 12.234375 L 38.578125 13.238281 C 38.117188 13.253906 37.746094 13.628906 37.746094 14.09375 C 37.746094 14.144531 37.75 14.199219 37.761719 14.25 L 36.53125 14.703125 C 36.449219 14.597656 36.320312 14.535156 36.175781 14.535156 C 35.921875 14.535156 35.71875 14.738281 35.71875 14.988281 C 35.71875 15.109375 35.765625 15.214844 35.839844 15.296875 L 35.214844 16.429688 C 35.152344 16.410156 35.082031 16.398438 35.015625 16.398438 C 34.628906 16.398438 34.320312 16.707031 34.320312 17.089844 C 34.320312 17.476562 34.628906 17.785156 35.015625 17.785156 C 35.402344 17.785156 35.710938 17.476562 35.710938 17.089844 L 37.433594 16.726562 C 37.476562 16.792969 37.53125 16.851562 37.597656 16.886719 L 37.089844 19.296875 C 37.050781 19.292969 37.003906 19.289062 36.957031 19.289062 C 36.582031 19.289062 36.238281 19.449219 35.992188 19.703125 L 35.054688 18.984375 C 35.070312 18.941406 35.078125 18.886719 35.078125 18.839844 C 35.078125 18.585938 34.875 18.382812 34.621094 18.382812 C 34.371094 18.382812 34.164062 18.585938 34.164062 18.839844 C 34.164062 18.882812 34.171875 18.925781 34.183594 18.964844 L 33.589844 19.378906 C 33.339844 19.089844 32.972656 18.910156 32.566406 18.910156 C 31.816406 18.910156 31.210938 19.511719 31.210938 20.257812 C 31.210938 20.273438 31.210938 20.289062 31.210938 20.300781 L 30.199219 20.4375 C 30.144531 20.253906 30.023438 20.09375 29.867188 19.984375 L 30.949219 17.804688 C 31.0625 17.839844 31.1875 17.863281 31.316406 17.863281 C 31.9375 17.863281 32.445312 17.359375 32.445312 16.738281 C 32.445312 16.117188 31.9375 15.613281 31.316406 15.613281 C 30.753906 15.613281 30.289062 16.019531 30.199219 16.554688 L 29.308594 16.527344 C 29.25 16.34375 29.085938 16.21875 28.886719 16.21875 C 28.644531 16.21875 28.445312 16.414062 28.445312 16.65625 C 28.445312 16.75 28.472656 16.828125 28.515625 16.898438 L 27.804688 17.820312 C 27.621094 17.710938 27.410156 17.652344 27.1875 17.652344 C 26.519531 17.652344 25.980469 18.191406 25.980469 18.855469 C 25.980469 18.859375 25.980469 18.863281 25.980469 18.867188 L 25.152344 18.976562 C 25.0625 18.6875 24.824219 18.457031 24.523438 18.382812 L 24.605469 17.417969 C 24.800781 17.371094 24.945312 17.191406 24.945312 16.984375 C 24.945312 16.898438 24.917969 16.816406 24.875 16.75 L 26.566406 14.675781 C 26.617188 14.695312 26.667969 14.703125 26.722656 14.703125 C 26.972656 14.703125 27.171875 14.503906 27.171875 14.253906 C 27.171875 14.011719 26.972656 13.804688 26.722656 13.804688 C 26.699219 13.804688 26.675781 13.804688 26.65625 13.808594 L 26.394531 13.304688 C 26.714844 13.089844 26.925781 12.726562 26.925781 12.3125 C 26.925781 11.648438 26.386719 11.109375 25.71875 11.109375 C 25.710938 11.109375 25.707031 11.109375 25.703125 11.109375 Z M 29.5 12.710938 L 29.703125 11.503906 C 29.707031 11.503906 29.714844 11.503906 29.71875 11.503906 C 30.066406 11.503906 30.371094 11.320312 30.539062 11.046875 L 31.9375 11.621094 C 31.917969 11.699219 31.910156 11.78125 31.910156 11.867188 C 31.910156 12.417969 32.355469 12.859375 32.90625 12.859375 C 33.457031 12.859375 33.902344 12.417969 33.902344 11.867188 C 33.902344 11.597656 33.796875 11.359375 33.628906 11.175781 L 34.28125 10.335938 C 34.332031 10.355469 34.382812 10.363281 34.4375 10.363281 C 34.5 10.363281 34.5625 10.351562 34.617188 10.328125 L 35.429688 11.25 C 35.238281 11.457031 35.125 11.734375 35.125 12.035156 C 35.125 12.339844 35.242188 12.617188 35.429688 12.828125 L 34.347656 14.078125 C 34.214844 14 34.0625 13.953125 33.898438 13.953125 C 33.582031 13.953125 33.3125 14.121094 33.15625 14.367188 L 32.132812 13.960938 C 32.132812 13.953125 32.132812 13.945312 32.132812 13.9375 C 32.132812 13.691406 31.929688 13.488281 31.679688 13.488281 C 31.480469 13.488281 31.3125 13.621094 31.253906 13.804688 L 30.472656 13.828125 C 30.398438 13.289062 30.011719 12.855469 29.496094 12.710938 Z M 33.003906 8.613281 L 34.023438 9.683594 C 33.992188 9.746094 33.96875 9.820312 33.96875 9.902344 C 33.96875 9.996094 34 10.085938 34.046875 10.160156 L 33.394531 11 C 33.25 10.917969 33.082031 10.871094 32.902344 10.871094 C 32.539062 10.871094 32.222656 11.066406 32.046875 11.355469 L 30.648438 10.773438 C 30.667969 10.703125 30.675781 10.625 30.675781 10.542969 C 30.675781 10.300781 30.582031 10.078125 30.429688 9.90625 L 31.457031 8.664062 C 31.671875 8.804688 31.917969 8.882812 32.191406 8.882812 C 32.496094 8.882812 32.777344 8.78125 33.003906 8.609375 Z M 38.9375 11.335938 L 38.597656 10.160156 C 38.792969 10.078125 38.957031 9.941406 39.082031 9.773438 L 40.359375 10.484375 C 40.320312 10.589844 40.296875 10.707031 40.296875 10.828125 C 40.296875 10.910156 40.308594 10.988281 40.328125 11.066406 L 39.292969 11.5 C 39.203125 11.398438 39.078125 11.335938 38.9375 11.332031 Z M 36.613281 21.914062 L 36.414062 23.152344 C 36.148438 23.179688 35.941406 23.40625 35.941406 23.679688 C 35.941406 23.925781 36.113281 24.132812 36.34375 24.195312 L 36.363281 25.128906 C 36.355469 25.132812 36.34375 25.136719 36.335938 25.140625 L 35.671875 24.589844 C 35.703125 24.527344 35.71875 24.453125 35.71875 24.378906 C 35.71875 24.109375 35.511719 23.886719 35.246094 23.859375 L 35.132812 23.234375 C 35.511719 23.105469 35.78125 22.75 35.78125 22.332031 C 35.78125 22.15625 35.738281 21.996094 35.65625 21.855469 L 36.019531 21.566406 C 36.183594 21.726562 36.386719 21.851562 36.617188 21.914062 Z M 24.914062 13.203125 L 23.898438 14.609375 C 23.8125 14.574219 23.722656 14.550781 23.628906 14.550781 C 23.257812 14.550781 22.957031 14.855469 22.957031 15.222656 C 22.957031 15.410156 23.035156 15.585938 23.164062 15.703125 L 22.101562 17.429688 C 21.96875 17.371094 21.820312 17.339844 21.667969 17.339844 C 21.65625 17.339844 21.648438 17.339844 21.636719 17.339844 L 21.554688 16.832031 C 21.957031 16.703125 22.25 16.328125 22.25 15.886719 C 22.25 15.433594 21.945312 15.054688 21.53125 14.933594 L 21.589844 14.492188 C 21.609375 14.492188 21.628906 14.492188 21.652344 14.492188 C 22.457031 14.492188 23.109375 13.839844 23.109375 13.039062 C 23.109375 13 23.109375 12.964844 23.109375 12.929688 L 24.578125 12.671875 C 24.640625 12.878906 24.757812 13.066406 24.914062 13.207031 Z M 26.019531 16.132812 C 26.019531 15.664062 26.402344 15.277344 26.875 15.277344 C 27.347656 15.277344 27.734375 15.664062 27.734375 16.132812 C 27.734375 16.605469 27.347656 16.988281 26.875 16.988281 C 26.402344 16.988281 26.019531 16.605469 26.019531 16.132812 Z M 26.9375 10.398438 C 26.9375 10.148438 27.136719 9.949219 27.386719 9.949219 C 27.636719 9.949219 27.835938 10.148438 27.835938 10.398438 C 27.835938 10.644531 27.636719 10.847656 27.386719 10.847656 C 27.140625 10.847656 26.9375 10.644531 26.9375 10.398438 Z M 26.9375 10.398438 " clip-rule="evenodd"/></clipPath><linearGradient x1="39.985145" gradientTransform="matrix(0.378038, 0, 0, 0.376653, 20.192842, 6.22076)" y1="-0.154478" x2="39.673595" gradientUnits="userSpaceOnUse" y2="52.365337" id="id3"><stop stop-opacity="1" stop-color="rgb(94.898987%, 1.998901%, 9.799194%)" offset="0"/><stop stop-opacity="1" stop-color="rgb(94.898987%, 1.998901%, 9.799194%)" offset="0.00726688"/><stop stop-opacity="1" stop-color="rgb(94.898987%, 1.998901%, 9.799194%)" offset="0.0625"/><stop stop-opacity="1" stop-color="rgb(94.898987%, 1.998901%, 9.799194%)" offset="0.09375"/><stop stop-opacity="1" stop-color="rgb(94.898987%, 1.998901%, 9.799194%)" offset="0.109375"/><stop stop-opacity="1" stop-color="rgb(94.91272%, 2.256775%, 10.035706%)" offset="0.113281"/><stop stop-opacity="1" stop-color="rgb(94.926453%, 2.514648%, 10.272217%)" offset="0.117188"/><stop stop-opacity="1" stop-color="rgb(94.949341%, 2.972412%, 10.694885%)" offset="0.121094"/><stop stop-opacity="1" stop-color="rgb(94.973755%, 3.431702%, 11.117554%)" offset="0.125"/><stop stop-opacity="1" stop-color="rgb(94.996643%, 3.889465%, 11.538696%)" offset="0.128906"/><stop stop-opacity="1" stop-color="rgb(95.021057%, 4.348755%, 11.961365%)" offset="0.132812"/><stop stop-opacity="1" stop-color="rgb(95.045471%, 4.806519%, 12.384033%)" offset="0.136719"/><stop stop-opacity="1" stop-color="rgb(95.069885%, 5.265808%, 12.806702%)" offset="0.140625"/><stop stop-opacity="1" stop-color="rgb(95.092773%, 5.723572%, 13.227844%)" offset="0.144531"/><stop stop-opacity="1" stop-color="rgb(95.117188%, 6.182861%, 13.650513%)" offset="0.148438"/><stop stop-opacity="1" stop-color="rgb(95.140076%, 6.642151%, 14.071655%)" offset="0.152344"/><stop stop-opacity="1" stop-color="rgb(95.16449%, 7.10144%, 14.494324%)" offset="0.15625"/><stop stop-opacity="1" stop-color="rgb(95.187378%, 7.559204%, 14.916992%)" offset="0.160156"/><stop stop-opacity="1" stop-color="rgb(95.211792%, 8.018494%, 15.339661%)" offset="0.164062"/><stop stop-opacity="1" stop-color="rgb(95.236206%, 8.476257%, 15.760803%)" offset="0.167969"/><stop stop-opacity="1" stop-color="rgb(95.26062%, 8.935547%, 16.183472%)" offset="0.171875"/><stop stop-opacity="1" stop-color="rgb(95.283508%, 9.393311%, 16.60614%)" offset="0.175781"/><stop stop-opacity="1" stop-color="rgb(95.307922%, 9.8526%, 17.028809%)" offset="0.179688"/><stop stop-opacity="1" stop-color="rgb(95.330811%, 10.31189%, 17.449951%)" offset="0.183594"/><stop stop-opacity="1" stop-color="rgb(95.355225%, 10.771179%, 17.87262%)" offset="0.1875"/><stop stop-opacity="1" stop-color="rgb(95.379639%, 11.228943%, 18.293762%)" offset="0.191406"/><stop stop-opacity="1" stop-color="rgb(95.404053%, 11.688232%, 18.716431%)" offset="0.195312"/><stop stop-opacity="1" stop-color="rgb(95.426941%, 12.145996%, 19.139099%)" offset="0.199219"/><stop stop-opacity="1" stop-color="rgb(95.451355%, 12.605286%, 19.561768%)" offset="0.203125"/><stop stop-opacity="1" stop-color="rgb(95.474243%, 13.063049%, 19.98291%)" offset="0.207031"/><stop stop-opacity="1" stop-color="rgb(95.498657%, 13.522339%, 20.405579%)" offset="0.210938"/><stop stop-opacity="1" stop-color="rgb(95.521545%, 13.981628%, 20.828247%)" offset="0.214844"/><stop stop-opacity="1" stop-color="rgb(95.545959%, 14.440918%, 21.250916%)" offset="0.21875"/><stop stop-opacity="1" stop-color="rgb(95.570374%, 14.898682%, 21.672058%)" offset="0.222656"/><stop stop-opacity="1" stop-color="rgb(95.594788%, 15.357971%, 22.094727%)" offset="0.226562"/><stop stop-opacity="1" stop-color="rgb(95.617676%, 15.815735%, 22.515869%)" offset="0.230469"/><stop stop-opacity="1" stop-color="rgb(95.64209%, 16.275024%, 22.938538%)" offset="0.234375"/><stop stop-opacity="1" stop-color="rgb(95.664978%, 16.732788%, 23.361206%)" offset="0.238281"/><stop stop-opacity="1" stop-color="rgb(95.689392%, 17.192078%, 23.783875%)" offset="0.242188"/><stop stop-opacity="1" stop-color="rgb(95.713806%, 17.651367%, 24.205017%)" offset="0.246094"/><stop stop-opacity="1" stop-color="rgb(95.73822%, 18.110657%, 24.627686%)" offset="0.25"/><stop stop-opacity="1" stop-color="rgb(95.761108%, 18.56842%, 25.048828%)" offset="0.253906"/><stop stop-opacity="1" stop-color="rgb(95.785522%, 19.02771%, 25.471497%)" offset="0.257812"/><stop stop-opacity="1" stop-color="rgb(95.808411%, 19.485474%, 25.894165%)" offset="0.261719"/><stop stop-opacity="1" stop-color="rgb(95.832825%, 19.944763%, 26.316833%)" offset="0.265625"/><stop stop-opacity="1" stop-color="rgb(95.855713%, 20.402527%, 26.737976%)" offset="0.269531"/><stop stop-opacity="1" stop-color="rgb(95.880127%, 20.861816%, 27.160645%)" offset="0.273438"/><stop stop-opacity="1" stop-color="rgb(95.904541%, 21.321106%, 27.583313%)" offset="0.277344"/><stop stop-opacity="1" stop-color="rgb(95.928955%, 21.780396%, 28.005981%)" offset="0.28125"/><stop stop-opacity="1" stop-color="rgb(95.951843%, 22.238159%, 28.427124%)" offset="0.285156"/><stop stop-opacity="1" stop-color="rgb(95.976257%, 22.697449%, 28.849792%)" offset="0.289062"/><stop stop-opacity="1" stop-color="rgb(95.999146%, 23.155212%, 29.270935%)" offset="0.292969"/><stop stop-opacity="1" stop-color="rgb(96.02356%, 23.614502%, 29.693604%)" offset="0.296875"/><stop stop-opacity="1" stop-color="rgb(96.047974%, 24.072266%, 30.116272%)" offset="0.300781"/><stop stop-opacity="1" stop-color="rgb(96.072388%, 24.531555%, 30.53894%)" offset="0.304688"/><stop stop-opacity="1" stop-color="rgb(96.095276%, 24.990845%, 30.960083%)" offset="0.308594"/><stop stop-opacity="1" stop-color="rgb(96.11969%, 25.450134%, 31.382751%)" offset="0.3125"/><stop stop-opacity="1" stop-color="rgb(96.142578%, 25.907898%, 31.80542%)" offset="0.316406"/><stop stop-opacity="1" stop-color="rgb(96.166992%, 26.367188%, 32.228088%)" offset="0.320312"/><stop stop-opacity="1" stop-color="rgb(96.191406%, 26.824951%, 32.649231%)" offset="0.324219"/><stop stop-opacity="1" stop-color="rgb(96.21582%, 27.284241%, 33.071899%)" offset="0.328125"/><stop stop-opacity="1" stop-color="rgb(96.238708%, 27.742004%, 33.493042%)" offset="0.332031"/><stop stop-opacity="1" stop-color="rgb(96.263123%, 28.201294%, 33.91571%)" offset="0.335938"/><stop stop-opacity="1" stop-color="rgb(96.286011%, 28.659058%, 34.338379%)" offset="0.339844"/><stop stop-opacity="1" stop-color="rgb(96.310425%, 29.118347%, 34.761047%)" offset="0.34375"/><stop stop-opacity="1" stop-color="rgb(96.333313%, 29.577637%, 35.18219%)" offset="0.347656"/><stop stop-opacity="1" stop-color="rgb(96.357727%, 30.036926%, 35.604858%)" offset="0.351562"/><stop stop-opacity="1" stop-color="rgb(96.382141%, 30.49469%, 36.026001%)" offset="0.355469"/><stop stop-opacity="1" stop-color="rgb(96.406555%, 30.953979%, 36.448669%)" offset="0.359375"/><stop stop-opacity="1" stop-color="rgb(96.429443%, 31.411743%, 36.871338%)" offset="0.363281"/><stop stop-opacity="1" stop-color="rgb(96.453857%, 31.871033%, 37.294006%)" offset="0.367188"/><stop stop-opacity="1" stop-color="rgb(96.476746%, 32.328796%, 37.715149%)" offset="0.371094"/><stop stop-opacity="1" stop-color="rgb(96.50116%, 32.788086%, 38.137817%)" offset="0.375"/><stop stop-opacity="1" stop-color="rgb(96.525574%, 33.247375%, 38.560486%)" offset="0.378906"/><stop stop-opacity="1" stop-color="rgb(96.549988%, 33.706665%, 38.983154%)" offset="0.382812"/><stop stop-opacity="1" stop-color="rgb(96.572876%, 34.164429%, 39.404297%)" offset="0.386719"/><stop stop-opacity="1" stop-color="rgb(96.59729%, 34.623718%, 39.826965%)" offset="0.390625"/><stop stop-opacity="1" stop-color="rgb(96.620178%, 35.081482%, 40.248108%)" offset="0.394531"/><stop stop-opacity="1" stop-color="rgb(96.644592%, 35.540771%, 40.670776%)" offset="0.398438"/><stop stop-opacity="1" stop-color="rgb(96.66748%, 35.998535%, 41.093445%)" offset="0.402344"/><stop stop-opacity="1" stop-color="rgb(96.691895%, 36.457825%, 41.516113%)" offset="0.40625"/><stop stop-opacity="1" stop-color="rgb(96.716309%, 36.917114%, 41.937256%)" offset="0.410156"/><stop stop-opacity="1" stop-color="rgb(96.740723%, 37.376404%, 42.359924%)" offset="0.414062"/><stop stop-opacity="1" stop-color="rgb(96.763611%, 37.834167%, 42.782593%)" offset="0.417969"/><stop stop-opacity="1" stop-color="rgb(96.788025%, 38.293457%, 43.205261%)" offset="0.421875"/><stop stop-opacity="1" stop-color="rgb(96.810913%, 38.751221%, 43.626404%)" offset="0.425781"/><stop stop-opacity="1" stop-color="rgb(96.835327%, 39.21051%, 44.049072%)" offset="0.429688"/><stop stop-opacity="1" stop-color="rgb(96.859741%, 39.668274%, 44.470215%)" offset="0.433594"/><stop stop-opacity="1" stop-color="rgb(96.884155%, 40.127563%, 44.892883%)" offset="0.4375"/><stop stop-opacity="1" stop-color="rgb(96.907043%, 40.586853%, 45.315552%)" offset="0.441406"/><stop stop-opacity="1" stop-color="rgb(96.931458%, 41.046143%, 45.73822%)" offset="0.445312"/><stop stop-opacity="1" stop-color="rgb(96.954346%, 41.503906%, 46.159363%)" offset="0.449219"/><stop stop-opacity="1" stop-color="rgb(96.97876%, 41.963196%, 46.582031%)" offset="0.453125"/><stop stop-opacity="1" stop-color="rgb(97.001648%, 42.420959%, 47.003174%)" offset="0.457031"/><stop stop-opacity="1" stop-color="rgb(97.026062%, 42.880249%, 47.425842%)" offset="0.460938"/><stop stop-opacity="1" stop-color="rgb(97.050476%, 43.338013%, 47.848511%)" offset="0.464844"/><stop stop-opacity="1" stop-color="rgb(97.07489%, 43.797302%, 48.271179%)" offset="0.46875"/><stop stop-opacity="1" stop-color="rgb(97.097778%, 44.256592%, 48.692322%)" offset="0.472656"/><stop stop-opacity="1" stop-color="rgb(97.122192%, 44.715881%, 49.11499%)" offset="0.476562"/><stop stop-opacity="1" stop-color="rgb(97.145081%, 45.173645%, 49.537659%)" offset="0.480469"/><stop stop-opacity="1" stop-color="rgb(97.169495%, 45.632935%, 49.960327%)" offset="0.484375"/><stop stop-opacity="1" stop-color="rgb(97.193909%, 46.090698%, 50.38147%)" offset="0.488281"/><stop stop-opacity="1" stop-color="rgb(97.218323%, 46.549988%, 50.804138%)" offset="0.492188"/><stop stop-opacity="1" stop-color="rgb(97.241211%, 47.007751%, 51.225281%)" offset="0.496094"/><stop stop-opacity="1" stop-color="rgb(97.265625%, 47.467041%, 51.647949%)" offset="0.5"/><stop stop-opacity="1" stop-color="rgb(97.288513%, 47.926331%, 52.070618%)" offset="0.503906"/><stop stop-opacity="1" stop-color="rgb(97.312927%, 48.38562%, 52.493286%)" offset="0.507812"/><stop stop-opacity="1" stop-color="rgb(97.335815%, 48.843384%, 52.914429%)" offset="0.511719"/><stop stop-opacity="1" stop-color="rgb(97.360229%, 49.302673%, 53.337097%)" offset="0.515625"/><stop stop-opacity="1" stop-color="rgb(97.384644%, 49.760437%, 53.759766%)" offset="0.519531"/><stop stop-opacity="1" stop-color="rgb(97.409058%, 50.219727%, 54.182434%)" offset="0.523438"/><stop stop-opacity="1" stop-color="rgb(97.431946%, 50.67749%, 54.603577%)" offset="0.527344"/><stop stop-opacity="1" stop-color="rgb(97.45636%, 51.13678%, 55.026245%)" offset="0.53125"/><stop stop-opacity="1" stop-color="rgb(97.479248%, 51.594543%, 55.447388%)" offset="0.535156"/><stop stop-opacity="1" stop-color="rgb(97.503662%, 52.053833%, 55.870056%)" offset="0.539062"/><stop stop-opacity="1" stop-color="rgb(97.528076%, 52.513123%, 56.292725%)" offset="0.542969"/><stop stop-opacity="1" stop-color="rgb(97.55249%, 52.972412%, 56.715393%)" offset="0.546875"/><stop stop-opacity="1" stop-color="rgb(97.575378%, 53.430176%, 57.136536%)" offset="0.550781"/><stop stop-opacity="1" stop-color="rgb(97.599792%, 53.889465%, 57.559204%)" offset="0.554688"/><stop stop-opacity="1" stop-color="rgb(97.622681%, 54.347229%, 57.980347%)" offset="0.558594"/><stop stop-opacity="1" stop-color="rgb(97.647095%, 54.806519%, 58.403015%)" offset="0.5625"/><stop stop-opacity="1" stop-color="rgb(97.669983%, 55.264282%, 58.825684%)" offset="0.566406"/><stop stop-opacity="1" stop-color="rgb(97.694397%, 55.723572%, 59.248352%)" offset="0.570312"/><stop stop-opacity="1" stop-color="rgb(97.718811%, 56.182861%, 59.669495%)" offset="0.574219"/><stop stop-opacity="1" stop-color="rgb(97.743225%, 56.642151%, 60.092163%)" offset="0.578125"/><stop stop-opacity="1" stop-color="rgb(97.766113%, 57.099915%, 60.514832%)" offset="0.582031"/><stop stop-opacity="1" stop-color="rgb(97.790527%, 57.559204%, 60.9375%)" offset="0.585938"/><stop stop-opacity="1" stop-color="rgb(97.813416%, 58.016968%, 61.358643%)" offset="0.589844"/><stop stop-opacity="1" stop-color="rgb(97.83783%, 58.476257%, 61.781311%)" offset="0.59375"/><stop stop-opacity="1" stop-color="rgb(97.862244%, 58.934021%, 62.202454%)" offset="0.597656"/><stop stop-opacity="1" stop-color="rgb(97.886658%, 59.393311%, 62.625122%)" offset="0.601562"/><stop stop-opacity="1" stop-color="rgb(97.909546%, 59.8526%, 63.047791%)" offset="0.605469"/><stop stop-opacity="1" stop-color="rgb(97.93396%, 60.31189%, 63.470459%)" offset="0.609375"/><stop stop-opacity="1" stop-color="rgb(97.956848%, 60.769653%, 63.891602%)" offset="0.613281"/><stop stop-opacity="1" stop-color="rgb(97.981262%, 61.228943%, 64.31427%)" offset="0.617188"/><stop stop-opacity="1" stop-color="rgb(98.005676%, 61.686707%, 64.736938%)" offset="0.621094"/><stop stop-opacity="1" stop-color="rgb(98.03009%, 62.145996%, 65.159607%)" offset="0.625"/><stop stop-opacity="1" stop-color="rgb(98.052979%, 62.60376%, 65.58075%)" offset="0.628906"/><stop stop-opacity="1" stop-color="rgb(98.077393%, 63.063049%, 66.003418%)" offset="0.632812"/><stop stop-opacity="1" stop-color="rgb(98.100281%, 63.522339%, 66.424561%)" offset="0.636719"/><stop stop-opacity="1" stop-color="rgb(98.124695%, 63.981628%, 66.847229%)" offset="0.640625"/><stop stop-opacity="1" stop-color="rgb(98.147583%, 64.439392%, 67.269897%)" offset="0.644531"/><stop stop-opacity="1" stop-color="rgb(98.171997%, 64.898682%, 67.692566%)" offset="0.648438"/><stop stop-opacity="1" stop-color="rgb(98.196411%, 65.356445%, 68.113708%)" offset="0.652344"/><stop stop-opacity="1" stop-color="rgb(98.220825%, 65.815735%, 68.536377%)" offset="0.65625"/><stop stop-opacity="1" stop-color="rgb(98.243713%, 66.273499%, 68.959045%)" offset="0.660156"/><stop stop-opacity="1" stop-color="rgb(98.268127%, 66.732788%, 69.381714%)" offset="0.664062"/><stop stop-opacity="1" stop-color="rgb(98.291016%, 67.192078%, 69.802856%)" offset="0.667969"/><stop stop-opacity="1" stop-color="rgb(98.31543%, 67.651367%, 70.225525%)" offset="0.671875"/><stop stop-opacity="1" stop-color="rgb(98.339844%, 68.109131%, 70.646667%)" offset="0.675781"/><stop stop-opacity="1" stop-color="rgb(98.364258%, 68.56842%, 71.069336%)" offset="0.679688"/><stop stop-opacity="1" stop-color="rgb(98.387146%, 69.026184%, 71.492004%)" offset="0.683594"/><stop stop-opacity="1" stop-color="rgb(98.41156%, 69.485474%, 71.914673%)" offset="0.6875"/><stop stop-opacity="1" stop-color="rgb(98.434448%, 69.943237%, 72.335815%)" offset="0.691406"/><stop stop-opacity="1" stop-color="rgb(98.458862%, 70.402527%, 72.758484%)" offset="0.695312"/><stop stop-opacity="1" stop-color="rgb(98.48175%, 70.861816%, 73.179626%)" offset="0.699219"/><stop stop-opacity="1" stop-color="rgb(98.506165%, 71.321106%, 73.602295%)" offset="0.703125"/><stop stop-opacity="1" stop-color="rgb(98.530579%, 71.77887%, 74.024963%)" offset="0.707031"/><stop stop-opacity="1" stop-color="rgb(98.554993%, 72.238159%, 74.447632%)" offset="0.710938"/><stop stop-opacity="1" stop-color="rgb(98.577881%, 72.695923%, 74.868774%)" offset="0.714844"/><stop stop-opacity="1" stop-color="rgb(98.602295%, 73.155212%, 75.291443%)" offset="0.71875"/><stop stop-opacity="1" stop-color="rgb(98.625183%, 73.612976%, 75.714111%)" offset="0.722656"/><stop stop-opacity="1" stop-color="rgb(98.649597%, 74.072266%, 76.13678%)" offset="0.726562"/><stop stop-opacity="1" stop-color="rgb(98.674011%, 74.530029%, 76.557922%)" offset="0.730469"/><stop stop-opacity="1" stop-color="rgb(98.698425%, 74.989319%, 76.980591%)" offset="0.734375"/><stop stop-opacity="1" stop-color="rgb(98.721313%, 75.448608%, 77.401733%)" offset="0.738281"/><stop stop-opacity="1" stop-color="rgb(98.745728%, 75.907898%, 77.824402%)" offset="0.742188"/><stop stop-opacity="1" stop-color="rgb(98.768616%, 76.365662%, 78.24707%)" offset="0.746094"/><stop stop-opacity="1" stop-color="rgb(98.79303%, 76.824951%, 78.669739%)" offset="0.75"/><stop stop-opacity="1" stop-color="rgb(98.815918%, 77.282715%, 79.090881%)" offset="0.753906"/><stop stop-opacity="1" stop-color="rgb(98.840332%, 77.742004%, 79.51355%)" offset="0.757812"/><stop stop-opacity="1" stop-color="rgb(98.864746%, 78.199768%, 79.936218%)" offset="0.761719"/><stop stop-opacity="1" stop-color="rgb(98.88916%, 78.659058%, 80.358887%)" offset="0.765625"/><stop stop-opacity="1" stop-color="rgb(98.912048%, 79.118347%, 80.780029%)" offset="0.769531"/><stop stop-opacity="1" stop-color="rgb(98.936462%, 79.577637%, 81.202698%)" offset="0.773438"/><stop stop-opacity="1" stop-color="rgb(98.959351%, 80.0354%, 81.62384%)" offset="0.777344"/><stop stop-opacity="1" stop-color="rgb(98.983765%, 80.49469%, 82.046509%)" offset="0.78125"/><stop stop-opacity="1" stop-color="rgb(99.008179%, 80.952454%, 82.469177%)" offset="0.785156"/><stop stop-opacity="1" stop-color="rgb(99.032593%, 81.411743%, 82.891846%)" offset="0.789062"/><stop stop-opacity="1" stop-color="rgb(99.055481%, 81.869507%, 83.312988%)" offset="0.792969"/><stop stop-opacity="1" stop-color="rgb(99.079895%, 82.328796%, 83.735657%)" offset="0.796875"/><stop stop-opacity="1" stop-color="rgb(99.102783%, 82.788086%, 84.156799%)" offset="0.800781"/><stop stop-opacity="1" stop-color="rgb(99.127197%, 83.247375%, 84.579468%)" offset="0.804688"/><stop stop-opacity="1" stop-color="rgb(99.150085%, 83.705139%, 85.002136%)" offset="0.808594"/><stop stop-opacity="1" stop-color="rgb(99.1745%, 84.164429%, 85.424805%)" offset="0.8125"/><stop stop-opacity="1" stop-color="rgb(99.198914%, 84.622192%, 85.845947%)" offset="0.816406"/><stop stop-opacity="1" stop-color="rgb(99.223328%, 85.081482%, 86.268616%)" offset="0.820312"/><stop stop-opacity="1" stop-color="rgb(99.246216%, 85.539246%, 86.691284%)" offset="0.824219"/><stop stop-opacity="1" stop-color="rgb(99.27063%, 85.998535%, 87.113953%)" offset="0.828125"/><stop stop-opacity="1" stop-color="rgb(99.293518%, 86.457825%, 87.535095%)" offset="0.832031"/><stop stop-opacity="1" stop-color="rgb(99.317932%, 86.917114%, 87.957764%)" offset="0.835938"/><stop stop-opacity="1" stop-color="rgb(99.342346%, 87.374878%, 88.378906%)" offset="0.839844"/><stop stop-opacity="1" stop-color="rgb(99.36676%, 87.834167%, 88.801575%)" offset="0.84375"/><stop stop-opacity="1" stop-color="rgb(99.389648%, 88.291931%, 89.224243%)" offset="0.847656"/><stop stop-opacity="1" stop-color="rgb(99.414062%, 88.751221%, 89.646912%)" offset="0.851562"/><stop stop-opacity="1" stop-color="rgb(99.436951%, 89.208984%, 90.068054%)" offset="0.855469"/><stop stop-opacity="1" stop-color="rgb(99.461365%, 89.668274%, 90.490723%)" offset="0.859375"/><stop stop-opacity="1" stop-color="rgb(99.484253%, 90.127563%, 90.913391%)" offset="0.863281"/><stop stop-opacity="1" stop-color="rgb(99.508667%, 90.586853%, 91.33606%)" offset="0.867188"/><stop stop-opacity="1" stop-color="rgb(99.533081%, 91.044617%, 91.757202%)" offset="0.871094"/><stop stop-opacity="1" stop-color="rgb(99.557495%, 91.503906%, 92.179871%)" offset="0.875"/><stop stop-opacity="1" stop-color="rgb(99.580383%, 91.96167%, 92.601013%)" offset="0.878906"/><stop stop-opacity="1" stop-color="rgb(99.604797%, 92.420959%, 93.023682%)" offset="0.882812"/><stop stop-opacity="1" stop-color="rgb(99.627686%, 92.878723%, 93.44635%)" offset="0.886719"/><stop stop-opacity="1" stop-color="rgb(99.6521%, 93.338013%, 93.869019%)" offset="0.890625"/><stop stop-opacity="1" stop-color="rgb(99.676514%, 93.797302%, 94.290161%)" offset="0.894531"/><stop stop-opacity="1" stop-color="rgb(99.700928%, 94.256592%, 94.71283%)" offset="0.898438"/><stop stop-opacity="1" stop-color="rgb(99.723816%, 94.714355%, 95.133972%)" offset="0.902344"/><stop stop-opacity="1" stop-color="rgb(99.74823%, 95.173645%, 95.556641%)" offset="0.90625"/><stop stop-opacity="1" stop-color="rgb(99.771118%, 95.631409%, 95.979309%)" offset="0.910156"/><stop stop-opacity="1" stop-color="rgb(99.795532%, 96.090698%, 96.401978%)" offset="0.914062"/><stop stop-opacity="1" stop-color="rgb(99.81842%, 96.548462%, 96.82312%)" offset="0.917969"/><stop stop-opacity="1" stop-color="rgb(99.842834%, 97.007751%, 97.245789%)" offset="0.921875"/><stop stop-opacity="1" stop-color="rgb(99.867249%, 97.465515%, 97.668457%)" offset="0.925781"/><stop stop-opacity="1" stop-color="rgb(99.891663%, 97.924805%, 98.091125%)" offset="0.929687"/><stop stop-opacity="1" stop-color="rgb(99.914551%, 98.384094%, 98.512268%)" offset="0.933594"/><stop stop-opacity="1" stop-color="rgb(99.938965%, 98.843384%, 98.934937%)" offset="0.9375"/><stop stop-opacity="1" stop-color="rgb(99.961853%, 99.301147%, 99.356079%)" offset="0.941406"/><stop stop-opacity="1" stop-color="rgb(99.986267%, 99.760437%, 99.778748%)" offset="0.945313"/><stop stop-opacity="1" stop-color="rgb(99.992371%, 99.879456%, 99.888611%)" offset="0.953125"/><stop stop-opacity="1" stop-color="rgb(100%, 100%, 100%)" offset="0.96875"/><stop stop-opacity="1" stop-color="rgb(100%, 100%, 100%)" offset="0.992733"/><stop stop-opacity="1" stop-color="rgb(100%, 100%, 100%)" offset="1"/></linearGradient></defs><g clip-path="url(#id1)"><g clip-path="url(#id2)"><path fill="url(#id3)" d="M 20.191406 6.21875 L 20.191406 25.855469 L 44.515625 25.855469 L 44.515625 6.21875 Z M 20.191406 6.21875 " fill-rule="nonzero"/></g></g><g fill="#f20519" fill-opacity="1"><g transform="translate(44.918611, 22.556271)"><g><path d="M 1.4375 0 L 1.4375 -13.578125 L 3.0625 -13.578125 L 3.0625 0 Z M 1.4375 0 "/></g></g></g><g fill="#f20519" fill-opacity="1"><g transform="translate(49.419085, 22.556271)"><g><path d="M 1.34375 0 L 1.34375 -9.625 L 2.8125 -9.625 L 2.90625 -7.890625 C 3.21875 -8.503906 3.664062 -8.984375 4.25 -9.328125 C 4.832031 -9.679688 5.492188 -9.859375 6.234375 -9.859375 C 7.367188 -9.859375 8.273438 -9.507812 8.953125 -8.8125 C 9.628906 -8.125 9.96875 -7.0625 9.96875 -5.625 L 9.96875 0 L 8.34375 0 L 8.34375 -5.453125 C 8.34375 -7.460938 7.515625 -8.46875 5.859375 -8.46875 C 5.035156 -8.46875 4.347656 -8.164062 3.796875 -7.5625 C 3.242188 -6.957031 2.96875 -6.097656 2.96875 -4.984375 L 2.96875 0 Z M 1.34375 0 "/></g></g></g><g fill="#f20519" fill-opacity="1"><g transform="translate(60.515079, 22.556271)"><g><path d="M 5.140625 0 C 4.265625 0 3.570312 -0.210938 3.0625 -0.640625 C 2.5625 -1.066406 2.3125 -1.835938 2.3125 -2.953125 L 2.3125 -8.25 L 0.640625 -8.25 L 0.640625 -9.625 L 2.3125 -9.625 L 2.515625 -11.9375 L 3.9375 -11.9375 L 3.9375 -9.625 L 6.765625 -9.625 L 6.765625 -8.25 L 3.9375 -8.25 L 3.9375 -2.953125 C 3.9375 -2.335938 4.054688 -1.921875 4.296875 -1.703125 C 4.546875 -1.492188 4.984375 -1.390625 5.609375 -1.390625 L 6.625 -1.390625 L 6.625 0 Z M 5.140625 0 "/></g></g></g><g fill="#f20519" fill-opacity="1"><g transform="translate(68.022333, 22.556271)"><g><path d="M 5.671875 0.234375 C 4.742188 0.234375 3.925781 0.0234375 3.21875 -0.390625 C 2.507812 -0.816406 1.953125 -1.40625 1.546875 -2.15625 C 1.140625 -2.90625 0.9375 -3.789062 0.9375 -4.8125 C 0.9375 -5.820312 1.132812 -6.703125 1.53125 -7.453125 C 1.9375 -8.210938 2.492188 -8.800781 3.203125 -9.21875 C 3.921875 -9.644531 4.753906 -9.859375 5.703125 -9.859375 C 6.640625 -9.859375 7.445312 -9.644531 8.125 -9.21875 C 8.800781 -8.800781 9.320312 -8.25 9.6875 -7.5625 C 10.050781 -6.882812 10.234375 -6.148438 10.234375 -5.359375 C 10.234375 -5.210938 10.226562 -5.066406 10.21875 -4.921875 C 10.207031 -4.785156 10.203125 -4.625 10.203125 -4.4375 L 2.546875 -4.4375 C 2.578125 -3.707031 2.742188 -3.097656 3.046875 -2.609375 C 3.359375 -2.117188 3.742188 -1.75 4.203125 -1.5 C 4.660156 -1.257812 5.148438 -1.140625 5.671875 -1.140625 C 6.335938 -1.140625 6.894531 -1.296875 7.34375 -1.609375 C 7.800781 -1.921875 8.132812 -2.34375 8.34375 -2.875 L 9.953125 -2.875 C 9.691406 -1.976562 9.195312 -1.234375 8.46875 -0.640625 C 7.738281 -0.0546875 6.804688 0.234375 5.671875 0.234375 Z M 5.671875 -8.484375 C 4.890625 -8.484375 4.195312 -8.242188 3.59375 -7.765625 C 3 -7.296875 2.65625 -6.609375 2.5625 -5.703125 L 8.609375 -5.703125 C 8.578125 -6.566406 8.28125 -7.242188 7.71875 -7.734375 C 7.164062 -8.234375 6.484375 -8.484375 5.671875 -8.484375 Z M 5.671875 -8.484375 "/></g></g></g><g fill="#f20519" fill-opacity="1"><g transform="translate(79.060132, 22.556271)"><g><path d="M 1.34375 0 L 1.34375 -13.96875 L 2.96875 -13.96875 L 2.96875 0 Z M 1.34375 0 "/></g></g></g><g fill="#f20519" fill-opacity="1"><g transform="translate(83.36662, 22.556271)"><g><path d="M 1.34375 0 L 1.34375 -13.96875 L 2.96875 -13.96875 L 2.96875 0 Z M 1.34375 0 "/></g></g></g><g fill="#f20519" fill-opacity="1"><g transform="translate(87.673109, 22.556271)"><g><path d="M 2.328125 -11.765625 C 2.003906 -11.765625 1.734375 -11.867188 1.515625 -12.078125 C 1.304688 -12.296875 1.203125 -12.566406 1.203125 -12.890625 C 1.203125 -13.191406 1.304688 -13.445312 1.515625 -13.65625 C 1.734375 -13.863281 2.003906 -13.96875 2.328125 -13.96875 C 2.640625 -13.96875 2.90625 -13.863281 3.125 -13.65625 C 3.34375 -13.445312 3.453125 -13.191406 3.453125 -12.890625 C 3.453125 -12.566406 3.34375 -12.296875 3.125 -12.078125 C 2.90625 -11.867188 2.640625 -11.765625 2.328125 -11.765625 Z M 1.515625 0 L 1.515625 -9.625 L 3.140625 -9.625 L 3.140625 0 Z M 1.515625 0 "/></g></g></g><g fill="#ffffff" fill-opacity="1"><g transform="translate(51.961107, 7.648535)"><g><path d="M 0.492188 0 C 0.589844 0 0.667969 -0.078125 0.667969 -0.171875 L 0.667969 -1.964844 L 1.429688 -1.027344 C 1.5 -0.953125 1.585938 -0.953125 1.660156 -1.027344 L 2.417969 -1.964844 L 2.417969 -0.171875 C 2.417969 -0.078125 2.5 0 2.59375 0 C 2.6875 0 2.769531 -0.078125 2.769531 -0.171875 L 2.769531 -2.414062 C 2.769531 -2.507812 2.691406 -2.582031 2.59375 -2.582031 C 2.558594 -2.582031 2.507812 -2.570312 2.46875 -2.535156 L 1.546875 -1.40625 L 0.617188 -2.535156 C 0.582031 -2.570312 0.53125 -2.582031 0.488281 -2.582031 C 0.398438 -2.582031 0.316406 -2.519531 0.316406 -2.414062 L 0.316406 -0.171875 C 0.316406 -0.078125 0.394531 0 0.492188 0 Z M 0.492188 0 "/></g></g></g><g fill="#ffffff" fill-opacity="1"><g transform="translate(55.045052, 7.648535)"><g><path d="M 1.941406 -1.882812 C 1.878906 -1.882812 1.804688 -1.832031 1.804688 -1.703125 L 1.804688 -1.5 C 1.652344 -1.757812 1.410156 -1.902344 1.082031 -1.902344 C 0.589844 -1.902344 0.152344 -1.488281 0.152344 -0.9375 C 0.152344 -0.390625 0.589844 0.0273438 1.078125 0.0273438 C 1.410156 0.0273438 1.652344 -0.121094 1.804688 -0.375 L 1.804688 -0.160156 C 1.804688 -0.0742188 1.835938 0 1.941406 0 C 2.03125 0 2.078125 -0.0742188 2.078125 -0.160156 L 2.078125 -1.71875 C 2.078125 -1.808594 2.015625 -1.882812 1.941406 -1.882812 Z M 1.117188 -0.308594 C 0.765625 -0.308594 0.484375 -0.59375 0.484375 -0.9375 C 0.484375 -1.289062 0.765625 -1.570312 1.117188 -1.570312 C 1.46875 -1.570312 1.75 -1.296875 1.75 -0.9375 C 1.75 -0.582031 1.46875 -0.308594 1.117188 -0.308594 Z M 1.117188 -0.308594 "/></g></g></g><g fill="#ffffff" fill-opacity="1"><g transform="translate(57.358013, 7.648535)"><g><path d="M 1.28125 -1.890625 C 0.953125 -1.890625 0.695312 -1.734375 0.535156 -1.480469 L 0.535156 -1.703125 C 0.535156 -1.832031 0.464844 -1.882812 0.398438 -1.882812 C 0.332031 -1.882812 0.265625 -1.808594 0.265625 -1.71875 L 0.265625 -0.160156 C 0.265625 -0.0742188 0.3125 0 0.398438 0 C 0.40625 0 0.414062 0 0.425781 0 L 0.445312 0 C 0.535156 0 0.613281 -0.078125 0.613281 -0.171875 L 0.613281 -0.859375 C 0.613281 -1.238281 0.894531 -1.542969 1.28125 -1.542969 C 1.402344 -1.542969 1.460938 -1.632812 1.460938 -1.71875 C 1.460938 -1.804688 1.410156 -1.890625 1.28125 -1.890625 Z M 1.28125 -1.890625 "/></g></g></g><g fill="#ffffff" fill-opacity="1"><g transform="translate(58.87173, 7.648535)"><g><path d="M 0.453125 0 C 0.546875 0 0.621094 -0.078125 0.621094 -0.171875 L 0.621094 -0.609375 L 0.847656 -0.820312 L 1.535156 -0.0507812 C 1.597656 0.0195312 1.707031 0.0195312 1.777344 -0.0429688 C 1.847656 -0.113281 1.84375 -0.226562 1.785156 -0.289062 L 1.085938 -1.050781 L 1.644531 -1.578125 C 1.710938 -1.644531 1.714844 -1.75 1.652344 -1.816406 C 1.652344 -1.820312 1.648438 -1.820312 1.648438 -1.820312 C 1.578125 -1.890625 1.476562 -1.898438 1.410156 -1.828125 L 0.621094 -1.066406 L 0.621094 -2.429688 C 0.621094 -2.527344 0.550781 -2.605469 0.453125 -2.605469 C 0.355469 -2.605469 0.273438 -2.527344 0.273438 -2.429688 L 0.273438 -0.171875 C 0.273438 -0.078125 0.355469 0 0.453125 0 Z M 0.453125 0 "/></g></g></g><g fill="#ffffff" fill-opacity="1"><g transform="translate(60.793141, 7.648535)"><g><path d="M 1.105469 -1.902344 C 0.550781 -1.902344 0.152344 -1.472656 0.152344 -0.941406 C 0.152344 -0.40625 0.550781 0.0273438 1.097656 0.0273438 C 1.390625 0.0273438 1.609375 -0.0703125 1.765625 -0.226562 C 1.839844 -0.308594 1.835938 -0.410156 1.792969 -0.46875 C 1.71875 -0.5625 1.601562 -0.523438 1.535156 -0.464844 C 1.417969 -0.359375 1.285156 -0.308594 1.109375 -0.308594 C 0.820312 -0.308594 0.582031 -0.507812 0.515625 -0.789062 L 1.835938 -0.789062 C 1.941406 -0.789062 1.992188 -0.875 1.992188 -1 C 1.992188 -1.480469 1.628906 -1.902344 1.105469 -1.902344 Z M 0.519531 -1.105469 C 0.59375 -1.371094 0.828125 -1.570312 1.117188 -1.570312 C 1.414062 -1.570312 1.667969 -1.359375 1.679688 -1.105469 Z M 0.519531 -1.105469 "/></g></g></g><g fill="#ffffff" fill-opacity="1"><g transform="translate(62.936563, 7.648535)"><g><path d="M 0.8125 -1.882812 L 0.8125 -2.253906 C 0.8125 -2.351562 0.726562 -2.425781 0.628906 -2.425781 C 0.535156 -2.425781 0.464844 -2.351562 0.464844 -2.253906 L 0.464844 -1.882812 L 0.222656 -1.882812 C 0.0898438 -1.882812 0.0390625 -1.796875 0.0390625 -1.71875 C 0.0390625 -1.628906 0.09375 -1.550781 0.222656 -1.550781 L 0.464844 -1.550781 L 0.464844 -0.183594 C 0.464844 -0.0625 0.554688 0 0.636719 0 C 0.726562 0 0.8125 -0.0664062 0.8125 -0.183594 L 0.8125 -1.550781 L 1.058594 -1.550781 C 1.167969 -1.550781 1.230469 -1.621094 1.230469 -1.722656 C 1.230469 -1.804688 1.167969 -1.882812 1.058594 -1.882812 Z M 0.8125 -1.882812 "/></g></g></g><g fill="#ffffff" fill-opacity="1"><g transform="translate(64.208087, 7.648535)"><g/></g></g><g fill="#ffffff" fill-opacity="1"><g transform="translate(65.245489, 7.648535)"><g><path d="M 1.269531 -1.902344 C 0.957031 -1.902344 0.691406 -1.757812 0.535156 -1.515625 L 0.535156 -1.707031 C 0.535156 -1.839844 0.464844 -1.886719 0.398438 -1.886719 C 0.332031 -1.886719 0.265625 -1.8125 0.265625 -1.722656 L 0.265625 0.5 C 0.265625 0.605469 0.347656 0.6875 0.445312 0.6875 C 0.550781 0.6875 0.613281 0.605469 0.613281 0.5 L 0.613281 -0.269531 C 0.765625 -0.0820312 0.988281 0.0273438 1.265625 0.0273438 C 1.761719 0.0273438 2.191406 -0.390625 2.191406 -0.9375 C 2.191406 -1.488281 1.761719 -1.902344 1.269531 -1.902344 Z M 1.230469 -0.308594 C 0.878906 -0.308594 0.597656 -0.59375 0.597656 -0.9375 C 0.597656 -1.289062 0.878906 -1.570312 1.230469 -1.570312 C 1.582031 -1.570312 1.859375 -1.289062 1.859375 -0.9375 C 1.859375 -0.59375 1.582031 -0.308594 1.230469 -0.308594 Z M 1.230469 -0.308594 "/></g></g></g><g fill="#ffffff" fill-opacity="1"><g transform="translate(67.586707, 7.648535)"><g><path d="M 0.273438 -0.183594 C 0.273438 -0.0625 0.363281 0 0.453125 0 C 0.535156 0 0.621094 -0.0664062 0.621094 -0.183594 L 0.621094 -2.425781 C 0.621094 -2.527344 0.539062 -2.605469 0.445312 -2.605469 C 0.351562 -2.605469 0.273438 -2.527344 0.273438 -2.425781 Z M 0.273438 -0.183594 "/></g></g></g><g fill="#ffffff" fill-opacity="1"><g transform="translate(68.486863, 7.648535)"><g><path d="M 1.941406 -1.882812 C 1.878906 -1.882812 1.804688 -1.832031 1.804688 -1.703125 L 1.804688 -1.5 C 1.652344 -1.757812 1.410156 -1.902344 1.082031 -1.902344 C 0.589844 -1.902344 0.152344 -1.488281 0.152344 -0.9375 C 0.152344 -0.390625 0.589844 0.0273438 1.078125 0.0273438 C 1.410156 0.0273438 1.652344 -0.121094 1.804688 -0.375 L 1.804688 -0.160156 C 1.804688 -0.0742188 1.835938 0 1.941406 0 C 2.03125 0 2.078125 -0.0742188 2.078125 -0.160156 L 2.078125 -1.71875 C 2.078125 -1.808594 2.015625 -1.882812 1.941406 -1.882812 Z M 1.117188 -0.308594 C 0.765625 -0.308594 0.484375 -0.59375 0.484375 -0.9375 C 0.484375 -1.289062 0.765625 -1.570312 1.117188 -1.570312 C 1.46875 -1.570312 1.75 -1.296875 1.75 -0.9375 C 1.75 -0.582031 1.46875 -0.308594 1.117188 -0.308594 Z M 1.117188 -0.308594 "/></g></g></g><g fill="#ffffff" fill-opacity="1"><g transform="translate(70.799823, 7.648535)"><g><path d="M 1.792969 -0.46875 C 1.714844 -0.5625 1.609375 -0.515625 1.539062 -0.464844 C 1.421875 -0.355469 1.269531 -0.308594 1.117188 -0.308594 C 0.757812 -0.308594 0.503906 -0.601562 0.503906 -0.941406 C 0.503906 -1.289062 0.761719 -1.570312 1.117188 -1.570312 C 1.28125 -1.570312 1.421875 -1.523438 1.539062 -1.417969 C 1.609375 -1.363281 1.714844 -1.320312 1.792969 -1.414062 C 1.839844 -1.476562 1.851562 -1.578125 1.769531 -1.65625 C 1.605469 -1.8125 1.371094 -1.902344 1.121094 -1.902344 C 0.617188 -1.902344 0.152344 -1.519531 0.152344 -0.9375 C 0.152344 -0.378906 0.589844 0.0273438 1.121094 0.0273438 C 1.367188 0.0273438 1.605469 -0.0703125 1.769531 -0.226562 C 1.851562 -0.304688 1.84375 -0.402344 1.792969 -0.46875 Z M 1.792969 -0.46875 "/></g></g></g><g fill="#ffffff" fill-opacity="1"><g transform="translate(72.806003, 7.648535)"><g><path d="M 1.105469 -1.902344 C 0.550781 -1.902344 0.152344 -1.472656 0.152344 -0.941406 C 0.152344 -0.40625 0.550781 0.0273438 1.097656 0.0273438 C 1.390625 0.0273438 1.609375 -0.0703125 1.765625 -0.226562 C 1.839844 -0.308594 1.835938 -0.410156 1.792969 -0.46875 C 1.71875 -0.5625 1.601562 -0.523438 1.535156 -0.464844 C 1.417969 -0.359375 1.285156 -0.308594 1.109375 -0.308594 C 0.820312 -0.308594 0.582031 -0.507812 0.515625 -0.789062 L 1.835938 -0.789062 C 1.941406 -0.789062 1.992188 -0.875 1.992188 -1 C 1.992188 -1.480469 1.628906 -1.902344 1.105469 -1.902344 Z M 0.519531 -1.105469 C 0.59375 -1.371094 0.828125 -1.570312 1.117188 -1.570312 C 1.414062 -1.570312 1.667969 -1.359375 1.679688 -1.105469 Z M 0.519531 -1.105469 "/></g></g></g></svg>