<svg xmlns="http://www.w3.org/2000/svg" xmlns:xlink="http://www.w3.org/1999/xlink" width="150" zoomAndPan="magnify" viewBox="0 0 112.5 30.000001" height="40" preserveAspectRatio="xMidYMid meet" version="1.0"><defs><g/><clipPath id="id1"><path d="M 20.386719 6.179688 L 44.578125 6.179688 L 44.578125 25.765625 L 20.386719 25.765625 Z M 20.386719 6.179688 " clip-rule="nonzero"/></clipPath><clipPath id="id2"><path d="M 41.65625 16.964844 C 41.65625 16.160156 42.3125 15.511719 43.121094 15.511719 C 43.929688 15.511719 44.578125 16.164062 44.578125 16.964844 C 44.578125 17.773438 43.925781 18.421875 43.121094 18.421875 C 42.867188 18.421875 42.628906 18.355469 42.421875 18.242188 L 41.367188 19.789062 C 41.617188 20.003906 41.773438 20.324219 41.773438 20.683594 C 41.773438 21.339844 41.238281 21.871094 40.582031 21.871094 C 39.921875 21.871094 39.390625 21.339844 39.390625 20.683594 C 39.390625 20.234375 39.640625 19.839844 40.015625 19.640625 L 39.71875 18.890625 C 39.648438 18.90625 39.578125 18.914062 39.507812 18.914062 C 38.984375 18.914062 38.5625 18.492188 38.5625 17.972656 C 38.5625 17.453125 38.988281 17.03125 39.507812 17.03125 C 39.59375 17.03125 39.679688 17.042969 39.757812 17.0625 L 40.371094 15.707031 C 40.222656 15.589844 40.125 15.410156 40.125 15.210938 C 40.125 14.859375 40.40625 14.582031 40.753906 14.582031 C 40.910156 14.582031 41.046875 14.632812 41.15625 14.726562 L 42.253906 13.894531 C 42.175781 13.753906 42.132812 13.582031 42.132812 13.40625 C 42.132812 13.117188 42.257812 12.847656 42.457031 12.664062 L 41.78125 11.671875 C 41.652344 11.734375 41.511719 11.765625 41.359375 11.765625 C 41.007812 11.765625 40.699219 11.578125 40.527344 11.300781 L 39.5 11.734375 C 39.5 11.746094 39.503906 11.761719 39.503906 11.773438 C 39.503906 12.011719 39.328125 12.203125 39.105469 12.242188 L 38.964844 13.238281 C 39.3125 13.347656 39.558594 13.667969 39.558594 14.046875 C 39.558594 14.515625 39.175781 14.898438 38.707031 14.898438 C 38.390625 14.898438 38.113281 14.726562 37.964844 14.472656 L 36.742188 14.921875 C 36.742188 14.925781 36.742188 14.929688 36.742188 14.9375 C 36.742188 15.1875 36.539062 15.390625 36.289062 15.390625 C 36.261719 15.390625 36.230469 15.386719 36.203125 15.382812 L 35.585938 16.503906 C 35.660156 16.574219 35.722656 16.65625 35.765625 16.75 L 37.480469 16.390625 C 37.507812 16.164062 37.699219 15.988281 37.929688 15.988281 C 38.183594 15.988281 38.386719 16.191406 38.386719 16.441406 C 38.386719 16.675781 38.210938 16.867188 37.984375 16.890625 L 37.480469 19.289062 C 38.011719 19.460938 38.398438 19.960938 38.398438 20.546875 C 38.398438 21.277344 37.804688 21.875 37.066406 21.875 C 37.042969 21.875 37.019531 21.875 37 21.875 L 36.800781 23.101562 C 36.980469 23.183594 37.109375 23.367188 37.109375 23.582031 C 37.109375 23.824219 36.949219 24.019531 36.730469 24.089844 L 36.75 25.015625 C 36.890625 25.070312 36.992188 25.207031 36.992188 25.367188 C 36.992188 25.570312 36.820312 25.742188 36.613281 25.742188 C 36.40625 25.742188 36.238281 25.570312 36.238281 25.367188 C 36.238281 25.328125 36.246094 25.289062 36.257812 25.253906 L 35.601562 24.707031 C 35.515625 24.761719 35.414062 24.796875 35.300781 24.796875 C 35.011719 24.796875 34.78125 24.5625 34.78125 24.277344 C 34.78125 24.070312 34.898438 23.894531 35.074219 23.808594 L 34.960938 23.183594 C 34.953125 23.183594 34.941406 23.183594 34.933594 23.183594 C 34.40625 23.183594 33.980469 22.757812 33.980469 22.234375 C 33.980469 21.710938 34.40625 21.28125 34.933594 21.28125 C 35.1875 21.28125 35.410156 21.378906 35.582031 21.535156 L 35.945312 21.25 C 35.8125 21.042969 35.738281 20.804688 35.738281 20.539062 C 35.738281 20.289062 35.808594 20.054688 35.933594 19.851562 L 35 19.140625 C 34.929688 19.1875 34.84375 19.21875 34.75 19.21875 C 34.648438 19.21875 34.554688 19.183594 34.480469 19.128906 L 33.890625 19.535156 C 33.992188 19.726562 34.050781 19.945312 34.050781 20.175781 C 34.050781 20.917969 33.449219 21.519531 32.703125 21.519531 C 32.074219 21.519531 31.546875 21.085938 31.398438 20.503906 L 30.390625 20.640625 C 30.378906 21.117188 29.988281 21.5 29.507812 21.5 C 29.019531 21.5 28.625 21.105469 28.625 20.621094 C 28.625 20.132812 29.019531 19.738281 29.507812 19.738281 C 29.597656 19.738281 29.683594 19.753906 29.765625 19.777344 L 30.839844 17.605469 C 30.566406 17.421875 30.375 17.125 30.34375 16.777344 L 29.457031 16.75 C 29.390625 16.914062 29.234375 17.03125 29.046875 17.03125 C 28.996094 17.03125 28.953125 17.023438 28.90625 17.007812 L 28.195312 17.925781 C 28.417969 18.144531 28.554688 18.441406 28.554688 18.777344 C 28.554688 19.433594 28.015625 19.972656 27.355469 19.972656 C 26.796875 19.972656 26.328125 19.589844 26.191406 19.074219 L 25.367188 19.183594 C 25.351562 19.652344 24.964844 20.03125 24.492188 20.03125 C 24.007812 20.03125 23.617188 19.640625 23.617188 19.15625 C 23.617188 18.699219 23.96875 18.328125 24.421875 18.289062 L 24.5 17.328125 C 24.34375 17.261719 24.234375 17.105469 24.234375 16.921875 C 24.234375 16.679688 24.433594 16.476562 24.679688 16.476562 C 24.738281 16.476562 24.785156 16.488281 24.835938 16.503906 L 26.515625 14.441406 C 26.472656 14.375 26.449219 14.292969 26.449219 14.207031 C 26.449219 14.085938 26.496094 13.976562 26.570312 13.898438 L 26.3125 13.394531 C 26.179688 13.445312 26.042969 13.472656 25.894531 13.472656 C 25.683594 13.472656 25.484375 13.414062 25.316406 13.320312 L 24.304688 14.71875 C 24.410156 14.835938 24.472656 14.992188 24.472656 15.164062 C 24.472656 15.53125 24.171875 15.832031 23.804688 15.832031 C 23.730469 15.832031 23.652344 15.820312 23.585938 15.792969 L 22.53125 17.511719 C 22.769531 17.703125 22.921875 18 22.921875 18.332031 C 22.921875 18.921875 22.441406 19.398438 21.851562 19.398438 C 21.261719 19.398438 20.785156 18.921875 20.785156 18.332031 C 20.785156 17.855469 21.105469 17.449219 21.539062 17.316406 L 21.457031 16.808594 C 21.449219 16.808594 21.445312 16.808594 21.4375 16.808594 C 20.890625 16.808594 20.445312 16.367188 20.445312 15.820312 C 20.445312 15.277344 20.886719 14.835938 21.429688 14.832031 L 21.492188 14.394531 C 20.855469 14.238281 20.382812 13.667969 20.382812 12.984375 C 20.382812 12.1875 21.03125 11.539062 21.832031 11.539062 C 22.5 11.539062 23.0625 11.984375 23.234375 12.59375 L 24.695312 12.335938 C 24.695312 12.3125 24.695312 12.292969 24.695312 12.273438 C 24.695312 12.070312 24.746094 11.878906 24.835938 11.710938 L 23.753906 10.957031 C 23.636719 11.070312 23.472656 11.136719 23.296875 11.136719 C 22.925781 11.136719 22.621094 10.832031 22.621094 10.464844 C 22.621094 10.09375 22.925781 9.789062 23.296875 9.789062 C 23.667969 9.789062 23.972656 10.09375 23.972656 10.464844 C 23.972656 10.554688 23.953125 10.644531 23.921875 10.722656 L 25 11.472656 C 25.152344 11.300781 25.359375 11.175781 25.589844 11.113281 L 25.585938 10.023438 C 25.179688 9.957031 24.871094 9.609375 24.871094 9.183594 C 24.871094 8.71875 25.253906 8.335938 25.726562 8.335938 C 26.003906 8.335938 26.25 8.464844 26.402344 8.667969 L 27.765625 7.957031 C 27.734375 7.855469 27.714844 7.75 27.714844 7.636719 C 27.714844 7.101562 28.152344 6.664062 28.691406 6.664062 C 29.230469 6.664062 29.671875 7.097656 29.671875 7.636719 C 29.671875 7.992188 29.476562 8.308594 29.1875 8.476562 L 29.640625 9.585938 C 29.710938 9.570312 29.78125 9.558594 29.863281 9.558594 C 30.039062 9.558594 30.207031 9.609375 30.351562 9.695312 L 31.375 8.457031 C 31.140625 8.21875 30.992188 7.894531 30.992188 7.535156 C 30.992188 6.804688 31.585938 6.207031 32.324219 6.207031 C 33.058594 6.207031 33.65625 6.800781 33.65625 7.535156 C 33.65625 7.859375 33.535156 8.160156 33.339844 8.386719 L 34.355469 9.453125 C 34.414062 9.421875 34.484375 9.40625 34.554688 9.40625 C 34.574219 9.40625 34.59375 9.40625 34.605469 9.410156 L 35.148438 8.246094 C 34.925781 8.089844 34.78125 7.835938 34.78125 7.542969 C 34.78125 7.078125 35.164062 6.695312 35.632812 6.695312 C 36.101562 6.695312 36.488281 7.078125 36.488281 7.542969 C 36.488281 7.648438 36.46875 7.75 36.433594 7.839844 L 37.296875 8.339844 C 37.511719 8.058594 37.851562 7.875 38.230469 7.875 C 38.882812 7.875 39.410156 8.398438 39.410156 9.046875 C 39.410156 9.203125 39.378906 9.355469 39.320312 9.488281 L 40.59375 10.195312 C 40.769531 9.96875 41.046875 9.820312 41.363281 9.820312 C 41.902344 9.820312 42.335938 10.253906 42.335938 10.789062 C 42.335938 11.070312 42.21875 11.324219 42.027344 11.5 L 42.703125 12.492188 C 42.835938 12.429688 42.984375 12.390625 43.140625 12.390625 C 43.699219 12.390625 44.148438 12.84375 44.148438 13.394531 C 44.148438 13.949219 43.699219 14.398438 43.140625 14.398438 C 42.867188 14.398438 42.617188 14.292969 42.433594 14.113281 L 41.335938 14.945312 C 41.371094 15.023438 41.390625 15.109375 41.390625 15.199219 C 41.390625 15.546875 41.109375 15.828125 40.757812 15.828125 C 40.71875 15.828125 40.675781 15.824219 40.636719 15.816406 L 40.023438 17.171875 C 40.285156 17.339844 40.457031 17.632812 40.457031 17.964844 C 40.457031 18.308594 40.269531 18.609375 39.992188 18.777344 L 40.289062 19.523438 C 40.386719 19.5 40.484375 19.488281 40.589844 19.488281 C 40.785156 19.488281 40.972656 19.535156 41.132812 19.617188 L 42.1875 18.074219 C 41.867188 17.808594 41.664062 17.410156 41.664062 16.960938 Z M 25.878906 11.085938 L 25.875 10.027344 C 26.277344 9.960938 26.582031 9.609375 26.582031 9.1875 C 26.582031 9.097656 26.566406 9.007812 26.542969 8.925781 L 27.90625 8.214844 C 28.082031 8.457031 28.371094 8.617188 28.695312 8.617188 C 28.773438 8.617188 28.851562 8.609375 28.925781 8.589844 L 29.375 9.699219 C 29.097656 9.863281 28.910156 10.167969 28.910156 10.515625 C 28.910156 10.933594 29.183594 11.289062 29.566406 11.417969 L 29.363281 12.617188 C 29.335938 12.617188 29.308594 12.613281 29.277344 12.613281 C 28.535156 12.613281 27.933594 13.210938 27.933594 13.953125 C 27.933594 14.695312 28.535156 15.296875 29.277344 15.296875 C 29.984375 15.296875 30.566406 14.753906 30.621094 14.0625 L 31.398438 14.039062 C 31.464844 14.210938 31.625 14.328125 31.816406 14.328125 C 31.953125 14.328125 32.074219 14.269531 32.15625 14.171875 L 33.175781 14.578125 C 33.164062 14.636719 33.15625 14.695312 33.15625 14.757812 C 33.15625 15.226562 33.542969 15.613281 34.015625 15.613281 C 34.492188 15.613281 34.878906 15.226562 34.878906 14.757812 C 34.878906 14.550781 34.800781 14.359375 34.683594 14.210938 L 35.761719 12.964844 C 35.949219 13.089844 36.175781 13.164062 36.414062 13.164062 C 37.066406 13.164062 37.59375 12.640625 37.59375 11.992188 C 37.59375 11.34375 37.066406 10.820312 36.414062 10.820312 C 36.171875 10.820312 35.941406 10.894531 35.753906 11.019531 L 34.949219 10.101562 C 34.992188 10.035156 35.011719 9.953125 35.011719 9.867188 C 35.011719 9.734375 34.957031 9.617188 34.867188 9.53125 L 35.402344 8.363281 C 35.476562 8.382812 35.550781 8.394531 35.625 8.394531 C 35.890625 8.394531 36.125 8.273438 36.28125 8.085938 L 37.140625 8.585938 C 37.082031 8.726562 37.046875 8.882812 37.046875 9.046875 C 37.046875 9.695312 37.574219 10.21875 38.222656 10.21875 C 38.289062 10.21875 38.351562 10.214844 38.414062 10.203125 L 38.75 11.371094 C 38.621094 11.457031 38.539062 11.597656 38.539062 11.761719 C 38.539062 11.953125 38.652344 12.113281 38.8125 12.195312 L 38.671875 13.191406 C 38.214844 13.207031 37.84375 13.578125 37.84375 14.039062 C 37.84375 14.09375 37.847656 14.144531 37.859375 14.199219 L 36.636719 14.648438 C 36.554688 14.542969 36.425781 14.480469 36.285156 14.480469 C 36.03125 14.480469 35.828125 14.679688 35.828125 14.933594 C 35.828125 15.050781 35.875 15.15625 35.949219 15.238281 L 35.328125 16.363281 C 35.265625 16.34375 35.199219 16.332031 35.128906 16.332031 C 34.746094 16.332031 34.4375 16.640625 34.4375 17.023438 C 34.4375 17.40625 34.746094 17.710938 35.128906 17.710938 C 35.511719 17.710938 35.820312 17.40625 35.820312 17.023438 L 37.535156 16.660156 C 37.578125 16.726562 37.628906 16.78125 37.699219 16.820312 L 37.195312 19.21875 C 37.152344 19.214844 37.109375 19.210938 37.0625 19.210938 C 36.6875 19.210938 36.34375 19.367188 36.101562 19.617188 L 35.167969 18.90625 C 35.183594 18.863281 35.195312 18.808594 35.195312 18.761719 C 35.195312 18.511719 34.992188 18.308594 34.738281 18.308594 C 34.488281 18.308594 34.285156 18.511719 34.285156 18.761719 C 34.285156 18.804688 34.292969 18.847656 34.300781 18.886719 L 33.710938 19.296875 C 33.464844 19.011719 33.097656 18.832031 32.691406 18.832031 C 31.949219 18.832031 31.347656 19.433594 31.347656 20.171875 C 31.347656 20.1875 31.347656 20.203125 31.347656 20.214844 L 30.339844 20.351562 C 30.28125 20.167969 30.164062 20.007812 30.007812 19.898438 L 31.082031 17.730469 C 31.195312 17.769531 31.320312 17.789062 31.449219 17.789062 C 32.070312 17.789062 32.574219 17.289062 32.574219 16.671875 C 32.574219 16.050781 32.070312 15.554688 31.449219 15.554688 C 30.890625 15.554688 30.429688 15.957031 30.339844 16.492188 L 29.453125 16.460938 C 29.394531 16.28125 29.230469 16.152344 29.035156 16.152344 C 28.792969 16.152344 28.59375 16.347656 28.59375 16.59375 C 28.59375 16.683594 28.621094 16.761719 28.667969 16.832031 L 27.957031 17.75 C 27.773438 17.640625 27.5625 17.582031 27.34375 17.582031 C 26.679688 17.582031 26.144531 18.117188 26.144531 18.777344 C 26.144531 18.78125 26.144531 18.789062 26.144531 18.792969 L 25.320312 18.898438 C 25.230469 18.609375 24.992188 18.382812 24.695312 18.308594 L 24.773438 17.347656 C 24.96875 17.300781 25.113281 17.125 25.113281 16.917969 C 25.113281 16.832031 25.085938 16.75 25.046875 16.683594 L 26.726562 14.621094 C 26.773438 14.640625 26.828125 14.648438 26.878906 14.648438 C 27.128906 14.648438 27.328125 14.449219 27.328125 14.203125 C 27.328125 13.957031 27.128906 13.757812 26.878906 13.757812 C 26.859375 13.757812 26.835938 13.757812 26.816406 13.757812 L 26.554688 13.257812 C 26.871094 13.042969 27.082031 12.679688 27.082031 12.269531 C 27.082031 11.609375 26.546875 11.074219 25.882812 11.074219 C 25.875 11.074219 25.871094 11.074219 25.867188 11.074219 Z M 29.644531 12.664062 L 29.847656 11.46875 C 29.851562 11.46875 29.859375 11.46875 29.863281 11.46875 C 30.207031 11.46875 30.507812 11.285156 30.675781 11.011719 L 32.070312 11.582031 C 32.050781 11.660156 32.039062 11.742188 32.039062 11.828125 C 32.039062 12.375 32.484375 12.816406 33.03125 12.816406 C 33.582031 12.816406 34.023438 12.375 34.023438 11.828125 C 34.023438 11.5625 33.917969 11.320312 33.75 11.140625 L 34.398438 10.304688 C 34.449219 10.324219 34.5 10.332031 34.554688 10.332031 C 34.617188 10.332031 34.679688 10.320312 34.734375 10.292969 L 35.539062 11.210938 C 35.351562 11.417969 35.238281 11.695312 35.238281 11.996094 C 35.238281 12.296875 35.355469 12.570312 35.542969 12.78125 L 34.464844 14.027344 C 34.332031 13.945312 34.183594 13.902344 34.015625 13.902344 C 33.703125 13.902344 33.433594 14.066406 33.28125 14.3125 L 32.261719 13.910156 C 32.261719 13.902344 32.261719 13.894531 32.261719 13.886719 C 32.261719 13.640625 32.0625 13.441406 31.8125 13.441406 C 31.613281 13.441406 31.445312 13.574219 31.386719 13.757812 L 30.609375 13.777344 C 30.539062 13.242188 30.152344 12.8125 29.640625 12.664062 Z M 33.128906 8.589844 L 34.144531 9.652344 C 34.109375 9.71875 34.089844 9.792969 34.089844 9.871094 C 34.089844 9.964844 34.117188 10.054688 34.167969 10.128906 L 33.515625 10.964844 C 33.375 10.882812 33.203125 10.835938 33.027344 10.835938 C 32.667969 10.835938 32.351562 11.03125 32.179688 11.316406 L 30.785156 10.738281 C 30.804688 10.667969 30.8125 10.589844 30.8125 10.511719 C 30.8125 10.269531 30.71875 10.046875 30.570312 9.878906 L 31.589844 8.640625 C 31.800781 8.78125 32.050781 8.859375 32.320312 8.859375 C 32.625 8.859375 32.902344 8.757812 33.128906 8.585938 Z M 39.027344 11.296875 L 38.691406 10.128906 C 38.886719 10.046875 39.050781 9.914062 39.175781 9.742188 L 40.445312 10.453125 C 40.40625 10.554688 40.382812 10.671875 40.382812 10.792969 C 40.382812 10.875 40.394531 10.953125 40.414062 11.03125 L 39.382812 11.464844 C 39.296875 11.363281 39.171875 11.296875 39.027344 11.292969 Z M 36.71875 21.820312 L 36.519531 23.050781 C 36.257812 23.082031 36.050781 23.304688 36.050781 23.574219 C 36.050781 23.824219 36.21875 24.027344 36.449219 24.089844 L 36.46875 25.015625 C 36.460938 25.019531 36.449219 25.023438 36.441406 25.027344 L 35.785156 24.480469 C 35.8125 24.417969 35.828125 24.347656 35.828125 24.273438 C 35.828125 24.003906 35.621094 23.78125 35.359375 23.753906 L 35.246094 23.132812 C 35.621094 23.003906 35.894531 22.648438 35.894531 22.234375 C 35.894531 22.0625 35.847656 21.902344 35.765625 21.761719 L 36.128906 21.472656 C 36.292969 21.632812 36.496094 21.757812 36.722656 21.816406 Z M 25.082031 13.15625 L 24.070312 14.554688 C 23.988281 14.519531 23.898438 14.496094 23.804688 14.496094 C 23.4375 14.496094 23.136719 14.796875 23.136719 15.164062 C 23.136719 15.351562 23.214844 15.523438 23.339844 15.644531 L 22.285156 17.359375 C 22.152344 17.300781 22.007812 17.269531 21.851562 17.269531 C 21.839844 17.269531 21.832031 17.269531 21.824219 17.269531 L 21.738281 16.765625 C 22.140625 16.636719 22.433594 16.261719 22.433594 15.824219 C 22.433594 15.375 22.132812 14.996094 21.71875 14.875 L 21.777344 14.4375 C 21.796875 14.4375 21.816406 14.4375 21.835938 14.4375 C 22.636719 14.4375 23.289062 13.789062 23.289062 12.992188 C 23.289062 12.953125 23.289062 12.921875 23.285156 12.882812 L 24.746094 12.628906 C 24.8125 12.835938 24.929688 13.019531 25.082031 13.160156 Z M 26.179688 16.070312 C 26.179688 15.601562 26.5625 15.222656 27.035156 15.222656 C 27.503906 15.222656 27.886719 15.601562 27.886719 16.070312 C 27.886719 16.539062 27.503906 16.921875 27.035156 16.921875 C 26.5625 16.921875 26.179688 16.539062 26.179688 16.070312 Z M 27.09375 10.367188 C 27.09375 10.117188 27.292969 9.917969 27.542969 9.917969 C 27.789062 9.917969 27.988281 10.117188 27.988281 10.367188 C 27.988281 10.609375 27.789062 10.8125 27.542969 10.8125 C 27.296875 10.8125 27.09375 10.613281 27.09375 10.367188 Z M 27.09375 10.367188 " clip-rule="evenodd"/></clipPath><linearGradient x1="39.985145" gradientTransform="matrix(0.37601, 0, 0, 0.374633, 20.386286, 6.210855)" y1="-0.154477" x2="39.673595" gradientUnits="userSpaceOnUse" y2="52.36534" id="id3"><stop stop-opacity="1" stop-color="rgb(94.898987%, 1.998901%, 9.799194%)" offset="0"/><stop stop-opacity="1" stop-color="rgb(94.898987%, 1.998901%, 9.799194%)" offset="0.00726688"/><stop stop-opacity="1" stop-color="rgb(94.898987%, 1.998901%, 9.799194%)" offset="0.0625"/><stop stop-opacity="1" stop-color="rgb(94.898987%, 1.998901%, 9.799194%)" offset="0.09375"/><stop stop-opacity="1" stop-color="rgb(94.898987%, 1.998901%, 9.799194%)" offset="0.109375"/><stop stop-opacity="1" stop-color="rgb(94.656372%, 2.003479%, 9.786987%)" offset="0.113281"/><stop stop-opacity="1" stop-color="rgb(94.415283%, 2.009583%, 9.776306%)" offset="0.117188"/><stop stop-opacity="1" stop-color="rgb(93.983459%, 2.017212%, 9.75647%)" offset="0.121094"/><stop stop-opacity="1" stop-color="rgb(93.551636%, 2.026367%, 9.736633%)" offset="0.125"/><stop stop-opacity="1" stop-color="rgb(93.119812%, 2.035522%, 9.715271%)" offset="0.128906"/><stop stop-opacity="1" stop-color="rgb(92.689514%, 2.044678%, 9.695435%)" offset="0.132813"/><stop stop-opacity="1" stop-color="rgb(92.25769%, 2.053833%, 9.675598%)" offset="0.136719"/><stop stop-opacity="1" stop-color="rgb(91.825867%, 2.062988%, 9.655762%)" offset="0.140625"/><stop stop-opacity="1" stop-color="rgb(91.394043%, 2.070618%, 9.635925%)" offset="0.144531"/><stop stop-opacity="1" stop-color="rgb(90.962219%, 2.079773%, 9.616089%)" offset="0.148438"/><stop stop-opacity="1" stop-color="rgb(90.530396%, 2.088928%, 9.594727%)" offset="0.152344"/><stop stop-opacity="1" stop-color="rgb(90.100098%, 2.098083%, 9.57489%)" offset="0.15625"/><stop stop-opacity="1" stop-color="rgb(89.668274%, 2.107239%, 9.555054%)" offset="0.160156"/><stop stop-opacity="1" stop-color="rgb(89.23645%, 2.116394%, 9.535217%)" offset="0.164063"/><stop stop-opacity="1" stop-color="rgb(88.804626%, 2.124023%, 9.515381%)" offset="0.167969"/><stop stop-opacity="1" stop-color="rgb(88.372803%, 2.133179%, 9.495544%)" offset="0.171875"/><stop stop-opacity="1" stop-color="rgb(87.940979%, 2.142334%, 9.474182%)" offset="0.175781"/><stop stop-opacity="1" stop-color="rgb(87.510681%, 2.151489%, 9.454346%)" offset="0.179688"/><stop stop-opacity="1" stop-color="rgb(87.078857%, 2.160645%, 9.434509%)" offset="0.183594"/><stop stop-opacity="1" stop-color="rgb(86.647034%, 2.1698%, 9.414673%)" offset="0.1875"/><stop stop-opacity="1" stop-color="rgb(86.21521%, 2.177429%, 9.393311%)" offset="0.191406"/><stop stop-opacity="1" stop-color="rgb(85.783386%, 2.186584%, 9.373474%)" offset="0.195313"/><stop stop-opacity="1" stop-color="rgb(85.351562%, 2.19574%, 9.353638%)" offset="0.199219"/><stop stop-opacity="1" stop-color="rgb(84.921265%, 2.204895%, 9.333801%)" offset="0.203125"/><stop stop-opacity="1" stop-color="rgb(84.489441%, 2.21405%, 9.313965%)" offset="0.207031"/><stop stop-opacity="1" stop-color="rgb(84.057617%, 2.223206%, 9.294128%)" offset="0.210938"/><stop stop-opacity="1" stop-color="rgb(83.625793%, 2.230835%, 9.272766%)" offset="0.214844"/><stop stop-opacity="1" stop-color="rgb(83.19397%, 2.23999%, 9.25293%)" offset="0.21875"/><stop stop-opacity="1" stop-color="rgb(82.762146%, 2.249146%, 9.233093%)" offset="0.222656"/><stop stop-opacity="1" stop-color="rgb(82.331848%, 2.258301%, 9.213257%)" offset="0.226563"/><stop stop-opacity="1" stop-color="rgb(81.900024%, 2.267456%, 9.19342%)" offset="0.230469"/><stop stop-opacity="1" stop-color="rgb(81.468201%, 2.276611%, 9.173584%)" offset="0.234375"/><stop stop-opacity="1" stop-color="rgb(81.036377%, 2.284241%, 9.152222%)" offset="0.238281"/><stop stop-opacity="1" stop-color="rgb(80.604553%, 2.293396%, 9.132385%)" offset="0.242188"/><stop stop-opacity="1" stop-color="rgb(80.172729%, 2.302551%, 9.112549%)" offset="0.246094"/><stop stop-opacity="1" stop-color="rgb(79.742432%, 2.311707%, 9.092712%)" offset="0.25"/><stop stop-opacity="1" stop-color="rgb(79.310608%, 2.320862%, 9.07135%)" offset="0.253906"/><stop stop-opacity="1" stop-color="rgb(78.878784%, 2.330017%, 9.051514%)" offset="0.257812"/><stop stop-opacity="1" stop-color="rgb(78.44696%, 2.337646%, 9.031677%)" offset="0.261719"/><stop stop-opacity="1" stop-color="rgb(78.015137%, 2.346802%, 9.011841%)" offset="0.265625"/><stop stop-opacity="1" stop-color="rgb(77.583313%, 2.355957%, 8.992004%)" offset="0.269531"/><stop stop-opacity="1" stop-color="rgb(77.153015%, 2.365112%, 8.972168%)" offset="0.273438"/><stop stop-opacity="1" stop-color="rgb(76.721191%, 2.374268%, 8.950806%)" offset="0.277344"/><stop stop-opacity="1" stop-color="rgb(76.289368%, 2.383423%, 8.930969%)" offset="0.28125"/><stop stop-opacity="1" stop-color="rgb(75.857544%, 2.391052%, 8.911133%)" offset="0.285156"/><stop stop-opacity="1" stop-color="rgb(75.42572%, 2.400208%, 8.891296%)" offset="0.289063"/><stop stop-opacity="1" stop-color="rgb(74.993896%, 2.409363%, 8.869934%)" offset="0.292969"/><stop stop-opacity="1" stop-color="rgb(74.563599%, 2.418518%, 8.850098%)" offset="0.296875"/><stop stop-opacity="1" stop-color="rgb(74.131775%, 2.427673%, 8.830261%)" offset="0.300781"/><stop stop-opacity="1" stop-color="rgb(73.699951%, 2.436829%, 8.810425%)" offset="0.304688"/><stop stop-opacity="1" stop-color="rgb(73.268127%, 2.444458%, 8.790588%)" offset="0.308594"/><stop stop-opacity="1" stop-color="rgb(72.836304%, 2.453613%, 8.770752%)" offset="0.3125"/><stop stop-opacity="1" stop-color="rgb(72.40448%, 2.462769%, 8.74939%)" offset="0.316406"/><stop stop-opacity="1" stop-color="rgb(71.974182%, 2.471924%, 8.729553%)" offset="0.320313"/><stop stop-opacity="1" stop-color="rgb(71.542358%, 2.479553%, 8.709717%)" offset="0.324219"/><stop stop-opacity="1" stop-color="rgb(71.110535%, 2.488708%, 8.68988%)" offset="0.328125"/><stop stop-opacity="1" stop-color="rgb(70.678711%, 2.497864%, 8.670044%)" offset="0.332031"/><stop stop-opacity="1" stop-color="rgb(70.246887%, 2.507019%, 8.650208%)" offset="0.335938"/><stop stop-opacity="1" stop-color="rgb(69.815063%, 2.516174%, 8.628845%)" offset="0.339844"/><stop stop-opacity="1" stop-color="rgb(69.384766%, 2.52533%, 8.609009%)" offset="0.34375"/><stop stop-opacity="1" stop-color="rgb(68.952942%, 2.532959%, 8.589172%)" offset="0.347656"/><stop stop-opacity="1" stop-color="rgb(68.521118%, 2.542114%, 8.569336%)" offset="0.351563"/><stop stop-opacity="1" stop-color="rgb(68.089294%, 2.55127%, 8.547974%)" offset="0.355469"/><stop stop-opacity="1" stop-color="rgb(67.657471%, 2.560425%, 8.528137%)" offset="0.359375"/><stop stop-opacity="1" stop-color="rgb(67.225647%, 2.56958%, 8.508301%)" offset="0.363281"/><stop stop-opacity="1" stop-color="rgb(66.795349%, 2.578735%, 8.488464%)" offset="0.367188"/><stop stop-opacity="1" stop-color="rgb(66.363525%, 2.586365%, 8.468628%)" offset="0.371094"/><stop stop-opacity="1" stop-color="rgb(65.931702%, 2.59552%, 8.448792%)" offset="0.375"/><stop stop-opacity="1" stop-color="rgb(65.499878%, 2.604675%, 8.427429%)" offset="0.378906"/><stop stop-opacity="1" stop-color="rgb(65.06958%, 2.613831%, 8.407593%)" offset="0.382813"/><stop stop-opacity="1" stop-color="rgb(64.637756%, 2.622986%, 8.387756%)" offset="0.386719"/><stop stop-opacity="1" stop-color="rgb(64.205933%, 2.632141%, 8.36792%)" offset="0.390625"/><stop stop-opacity="1" stop-color="rgb(63.774109%, 2.639771%, 8.348083%)" offset="0.394531"/><stop stop-opacity="1" stop-color="rgb(63.342285%, 2.648926%, 8.328247%)" offset="0.398438"/><stop stop-opacity="1" stop-color="rgb(62.910461%, 2.658081%, 8.306885%)" offset="0.402344"/><stop stop-opacity="1" stop-color="rgb(62.480164%, 2.667236%, 8.287048%)" offset="0.40625"/><stop stop-opacity="1" stop-color="rgb(62.04834%, 2.676392%, 8.267212%)" offset="0.410156"/><stop stop-opacity="1" stop-color="rgb(61.616516%, 2.685547%, 8.247375%)" offset="0.414063"/><stop stop-opacity="1" stop-color="rgb(61.184692%, 2.693176%, 8.226013%)" offset="0.417969"/><stop stop-opacity="1" stop-color="rgb(60.752869%, 2.702332%, 8.206177%)" offset="0.421875"/><stop stop-opacity="1" stop-color="rgb(60.321045%, 2.711487%, 8.18634%)" offset="0.425781"/><stop stop-opacity="1" stop-color="rgb(59.890747%, 2.720642%, 8.166504%)" offset="0.429688"/><stop stop-opacity="1" stop-color="rgb(59.458923%, 2.729797%, 8.146667%)" offset="0.433594"/><stop stop-opacity="1" stop-color="rgb(59.0271%, 2.738953%, 8.126831%)" offset="0.4375"/><stop stop-opacity="1" stop-color="rgb(58.595276%, 2.746582%, 8.105469%)" offset="0.441406"/><stop stop-opacity="1" stop-color="rgb(58.163452%, 2.755737%, 8.085632%)" offset="0.445312"/><stop stop-opacity="1" stop-color="rgb(57.731628%, 2.764893%, 8.065796%)" offset="0.449219"/><stop stop-opacity="1" stop-color="rgb(57.301331%, 2.774048%, 8.045959%)" offset="0.453125"/><stop stop-opacity="1" stop-color="rgb(56.869507%, 2.783203%, 8.024597%)" offset="0.457031"/><stop stop-opacity="1" stop-color="rgb(56.437683%, 2.792358%, 8.004761%)" offset="0.460938"/><stop stop-opacity="1" stop-color="rgb(56.005859%, 2.799988%, 7.984924%)" offset="0.464844"/><stop stop-opacity="1" stop-color="rgb(55.574036%, 2.809143%, 7.965088%)" offset="0.46875"/><stop stop-opacity="1" stop-color="rgb(55.142212%, 2.818298%, 7.945251%)" offset="0.472656"/><stop stop-opacity="1" stop-color="rgb(54.711914%, 2.827454%, 7.925415%)" offset="0.476563"/><stop stop-opacity="1" stop-color="rgb(54.28009%, 2.836609%, 7.904053%)" offset="0.480469"/><stop stop-opacity="1" stop-color="rgb(53.848267%, 2.845764%, 7.884216%)" offset="0.484375"/><stop stop-opacity="1" stop-color="rgb(53.416443%, 2.853394%, 7.86438%)" offset="0.488281"/><stop stop-opacity="1" stop-color="rgb(52.984619%, 2.862549%, 7.844543%)" offset="0.492188"/><stop stop-opacity="1" stop-color="rgb(52.552795%, 2.871704%, 7.824707%)" offset="0.496094"/><stop stop-opacity="1" stop-color="rgb(52.122498%, 2.880859%, 7.804871%)" offset="0.5"/><stop stop-opacity="1" stop-color="rgb(51.690674%, 2.890015%, 7.783508%)" offset="0.503906"/><stop stop-opacity="1" stop-color="rgb(51.25885%, 2.89917%, 7.763672%)" offset="0.507813"/><stop stop-opacity="1" stop-color="rgb(50.827026%, 2.906799%, 7.743835%)" offset="0.511719"/><stop stop-opacity="1" stop-color="rgb(50.395203%, 2.915955%, 7.723999%)" offset="0.515625"/><stop stop-opacity="1" stop-color="rgb(49.963379%, 2.92511%, 7.702637%)" offset="0.519531"/><stop stop-opacity="1" stop-color="rgb(49.533081%, 2.934265%, 7.6828%)" offset="0.523438"/><stop stop-opacity="1" stop-color="rgb(49.101257%, 2.94342%, 7.662964%)" offset="0.527344"/><stop stop-opacity="1" stop-color="rgb(48.669434%, 2.952576%, 7.643127%)" offset="0.53125"/><stop stop-opacity="1" stop-color="rgb(48.23761%, 2.960205%, 7.623291%)" offset="0.535156"/><stop stop-opacity="1" stop-color="rgb(47.805786%, 2.96936%, 7.603455%)" offset="0.539062"/><stop stop-opacity="1" stop-color="rgb(47.373962%, 2.978516%, 7.582092%)" offset="0.542969"/><stop stop-opacity="1" stop-color="rgb(46.943665%, 2.987671%, 7.562256%)" offset="0.546875"/><stop stop-opacity="1" stop-color="rgb(46.511841%, 2.996826%, 7.542419%)" offset="0.550781"/><stop stop-opacity="1" stop-color="rgb(46.080017%, 3.005981%, 7.522583%)" offset="0.554688"/><stop stop-opacity="1" stop-color="rgb(45.648193%, 3.013611%, 7.502747%)" offset="0.558594"/><stop stop-opacity="1" stop-color="rgb(45.21637%, 3.022766%, 7.48291%)" offset="0.5625"/><stop stop-opacity="1" stop-color="rgb(44.784546%, 3.031921%, 7.461548%)" offset="0.566406"/><stop stop-opacity="1" stop-color="rgb(44.354248%, 3.041077%, 7.441711%)" offset="0.570313"/><stop stop-opacity="1" stop-color="rgb(43.922424%, 3.050232%, 7.421875%)" offset="0.574219"/><stop stop-opacity="1" stop-color="rgb(43.490601%, 3.059387%, 7.402039%)" offset="0.578125"/><stop stop-opacity="1" stop-color="rgb(43.058777%, 3.067017%, 7.380676%)" offset="0.582031"/><stop stop-opacity="1" stop-color="rgb(42.626953%, 3.076172%, 7.36084%)" offset="0.585938"/><stop stop-opacity="1" stop-color="rgb(42.195129%, 3.085327%, 7.341003%)" offset="0.589844"/><stop stop-opacity="1" stop-color="rgb(41.764832%, 3.094482%, 7.321167%)" offset="0.59375"/><stop stop-opacity="1" stop-color="rgb(41.333008%, 3.102112%, 7.301331%)" offset="0.597656"/><stop stop-opacity="1" stop-color="rgb(40.901184%, 3.111267%, 7.281494%)" offset="0.601563"/><stop stop-opacity="1" stop-color="rgb(40.46936%, 3.120422%, 7.260132%)" offset="0.605469"/><stop stop-opacity="1" stop-color="rgb(40.037537%, 3.129578%, 7.240295%)" offset="0.609375"/><stop stop-opacity="1" stop-color="rgb(39.605713%, 3.138733%, 7.220459%)" offset="0.613281"/><stop stop-opacity="1" stop-color="rgb(39.175415%, 3.147888%, 7.200623%)" offset="0.617188"/><stop stop-opacity="1" stop-color="rgb(38.743591%, 3.155518%, 7.17926%)" offset="0.621094"/><stop stop-opacity="1" stop-color="rgb(38.311768%, 3.164673%, 7.159424%)" offset="0.625"/><stop stop-opacity="1" stop-color="rgb(37.879944%, 3.173828%, 7.139587%)" offset="0.628906"/><stop stop-opacity="1" stop-color="rgb(37.449646%, 3.182983%, 7.119751%)" offset="0.632812"/><stop stop-opacity="1" stop-color="rgb(37.017822%, 3.192139%, 7.099915%)" offset="0.636719"/><stop stop-opacity="1" stop-color="rgb(36.585999%, 3.201294%, 7.080078%)" offset="0.640625"/><stop stop-opacity="1" stop-color="rgb(36.154175%, 3.208923%, 7.058716%)" offset="0.644531"/><stop stop-opacity="1" stop-color="rgb(35.722351%, 3.218079%, 7.038879%)" offset="0.648438"/><stop stop-opacity="1" stop-color="rgb(35.290527%, 3.227234%, 7.019043%)" offset="0.652344"/><stop stop-opacity="1" stop-color="rgb(34.860229%, 3.236389%, 6.999207%)" offset="0.65625"/><stop stop-opacity="1" stop-color="rgb(34.428406%, 3.245544%, 6.97937%)" offset="0.660156"/><stop stop-opacity="1" stop-color="rgb(33.996582%, 3.2547%, 6.959534%)" offset="0.664063"/><stop stop-opacity="1" stop-color="rgb(33.564758%, 3.262329%, 6.938171%)" offset="0.667969"/><stop stop-opacity="1" stop-color="rgb(33.132935%, 3.271484%, 6.918335%)" offset="0.671875"/><stop stop-opacity="1" stop-color="rgb(32.701111%, 3.28064%, 6.898499%)" offset="0.675781"/><stop stop-opacity="1" stop-color="rgb(32.270813%, 3.289795%, 6.878662%)" offset="0.679688"/><stop stop-opacity="1" stop-color="rgb(31.838989%, 3.29895%, 6.8573%)" offset="0.683594"/><stop stop-opacity="1" stop-color="rgb(31.407166%, 3.308105%, 6.837463%)" offset="0.6875"/><stop stop-opacity="1" stop-color="rgb(30.975342%, 3.315735%, 6.817627%)" offset="0.691406"/><stop stop-opacity="1" stop-color="rgb(30.543518%, 3.32489%, 6.797791%)" offset="0.695313"/><stop stop-opacity="1" stop-color="rgb(30.111694%, 3.334045%, 6.777954%)" offset="0.699219"/><stop stop-opacity="1" stop-color="rgb(29.681396%, 3.343201%, 6.758118%)" offset="0.703125"/><stop stop-opacity="1" stop-color="rgb(29.249573%, 3.352356%, 6.736755%)" offset="0.707031"/><stop stop-opacity="1" stop-color="rgb(28.817749%, 3.361511%, 6.716919%)" offset="0.710938"/><stop stop-opacity="1" stop-color="rgb(28.385925%, 3.369141%, 6.697083%)" offset="0.714844"/><stop stop-opacity="1" stop-color="rgb(27.954102%, 3.378296%, 6.677246%)" offset="0.71875"/><stop stop-opacity="1" stop-color="rgb(27.522278%, 3.387451%, 6.65741%)" offset="0.722656"/><stop stop-opacity="1" stop-color="rgb(27.09198%, 3.396606%, 6.637573%)" offset="0.726562"/><stop stop-opacity="1" stop-color="rgb(26.660156%, 3.405762%, 6.616211%)" offset="0.730469"/><stop stop-opacity="1" stop-color="rgb(26.228333%, 3.414917%, 6.596375%)" offset="0.734375"/><stop stop-opacity="1" stop-color="rgb(25.796509%, 3.422546%, 6.576538%)" offset="0.738281"/><stop stop-opacity="1" stop-color="rgb(25.364685%, 3.431702%, 6.556702%)" offset="0.742188"/><stop stop-opacity="1" stop-color="rgb(24.932861%, 3.440857%, 6.535339%)" offset="0.746094"/><stop stop-opacity="1" stop-color="rgb(24.502563%, 3.450012%, 6.515503%)" offset="0.75"/><stop stop-opacity="1" stop-color="rgb(24.07074%, 3.459167%, 6.495667%)" offset="0.753906"/><stop stop-opacity="1" stop-color="rgb(23.638916%, 3.468323%, 6.47583%)" offset="0.757813"/><stop stop-opacity="1" stop-color="rgb(23.207092%, 3.475952%, 6.455994%)" offset="0.761719"/><stop stop-opacity="1" stop-color="rgb(22.775269%, 3.485107%, 6.436157%)" offset="0.765625"/><stop stop-opacity="1" stop-color="rgb(22.343445%, 3.494263%, 6.414795%)" offset="0.769531"/><stop stop-opacity="1" stop-color="rgb(21.913147%, 3.503418%, 6.394958%)" offset="0.773438"/><stop stop-opacity="1" stop-color="rgb(21.481323%, 3.512573%, 6.375122%)" offset="0.777344"/><stop stop-opacity="1" stop-color="rgb(21.0495%, 3.521729%, 6.355286%)" offset="0.78125"/><stop stop-opacity="1" stop-color="rgb(20.617676%, 3.529358%, 6.333923%)" offset="0.785156"/><stop stop-opacity="1" stop-color="rgb(20.185852%, 3.538513%, 6.314087%)" offset="0.789062"/><stop stop-opacity="1" stop-color="rgb(19.754028%, 3.547668%, 6.29425%)" offset="0.792969"/><stop stop-opacity="1" stop-color="rgb(19.32373%, 3.556824%, 6.274414%)" offset="0.796875"/><stop stop-opacity="1" stop-color="rgb(18.891907%, 3.565979%, 6.254578%)" offset="0.800781"/><stop stop-opacity="1" stop-color="rgb(18.460083%, 3.575134%, 6.234741%)" offset="0.804688"/><stop stop-opacity="1" stop-color="rgb(18.028259%, 3.582764%, 6.213379%)" offset="0.808594"/><stop stop-opacity="1" stop-color="rgb(17.596436%, 3.591919%, 6.193542%)" offset="0.8125"/><stop stop-opacity="1" stop-color="rgb(17.164612%, 3.601074%, 6.173706%)" offset="0.816406"/><stop stop-opacity="1" stop-color="rgb(16.734314%, 3.610229%, 6.15387%)" offset="0.820313"/><stop stop-opacity="1" stop-color="rgb(16.30249%, 3.619385%, 6.134033%)" offset="0.824219"/><stop stop-opacity="1" stop-color="rgb(15.870667%, 3.62854%, 6.114197%)" offset="0.828125"/><stop stop-opacity="1" stop-color="rgb(15.438843%, 3.636169%, 6.092834%)" offset="0.832031"/><stop stop-opacity="1" stop-color="rgb(15.007019%, 3.645325%, 6.072998%)" offset="0.835938"/><stop stop-opacity="1" stop-color="rgb(14.575195%, 3.65448%, 6.053162%)" offset="0.839844"/><stop stop-opacity="1" stop-color="rgb(14.144897%, 3.663635%, 6.033325%)" offset="0.84375"/><stop stop-opacity="1" stop-color="rgb(13.713074%, 3.671265%, 6.011963%)" offset="0.847656"/><stop stop-opacity="1" stop-color="rgb(13.28125%, 3.68042%, 5.992126%)" offset="0.851563"/><stop stop-opacity="1" stop-color="rgb(12.849426%, 3.689575%, 5.97229%)" offset="0.855469"/><stop stop-opacity="1" stop-color="rgb(12.417603%, 3.69873%, 5.952454%)" offset="0.859375"/><stop stop-opacity="1" stop-color="rgb(11.985779%, 3.707886%, 5.932617%)" offset="0.863281"/><stop stop-opacity="1" stop-color="rgb(11.555481%, 3.717041%, 5.912781%)" offset="0.867188"/><stop stop-opacity="1" stop-color="rgb(11.123657%, 3.72467%, 5.891418%)" offset="0.871094"/><stop stop-opacity="1" stop-color="rgb(10.691833%, 3.733826%, 5.871582%)" offset="0.875"/><stop stop-opacity="1" stop-color="rgb(10.26001%, 3.742981%, 5.851746%)" offset="0.878906"/><stop stop-opacity="1" stop-color="rgb(9.829712%, 3.752136%, 5.831909%)" offset="0.882812"/><stop stop-opacity="1" stop-color="rgb(9.397888%, 3.761292%, 5.812073%)" offset="0.886719"/><stop stop-opacity="1" stop-color="rgb(8.966064%, 3.770447%, 5.792236%)" offset="0.890625"/><stop stop-opacity="1" stop-color="rgb(8.534241%, 3.778076%, 5.770874%)" offset="0.894531"/><stop stop-opacity="1" stop-color="rgb(8.102417%, 3.787231%, 5.751038%)" offset="0.898438"/><stop stop-opacity="1" stop-color="rgb(7.670593%, 3.796387%, 5.731201%)" offset="0.902344"/><stop stop-opacity="1" stop-color="rgb(7.240295%, 3.805542%, 5.711365%)" offset="0.90625"/><stop stop-opacity="1" stop-color="rgb(6.808472%, 3.814697%, 5.690002%)" offset="0.910156"/><stop stop-opacity="1" stop-color="rgb(6.376648%, 3.823853%, 5.670166%)" offset="0.914063"/><stop stop-opacity="1" stop-color="rgb(5.944824%, 3.831482%, 5.65033%)" offset="0.917969"/><stop stop-opacity="1" stop-color="rgb(5.513%, 3.840637%, 5.630493%)" offset="0.921875"/><stop stop-opacity="1" stop-color="rgb(5.081177%, 3.849792%, 5.610657%)" offset="0.925781"/><stop stop-opacity="1" stop-color="rgb(4.650879%, 3.858948%, 5.59082%)" offset="0.929688"/><stop stop-opacity="1" stop-color="rgb(4.219055%, 3.868103%, 5.569458%)" offset="0.933594"/><stop stop-opacity="1" stop-color="rgb(3.787231%, 3.877258%, 5.549622%)" offset="0.9375"/><stop stop-opacity="1" stop-color="rgb(3.355408%, 3.884888%, 5.529785%)" offset="0.941406"/><stop stop-opacity="1" stop-color="rgb(2.923584%, 3.894043%, 5.509949%)" offset="0.945313"/><stop stop-opacity="1" stop-color="rgb(2.810669%, 3.895569%, 5.503845%)" offset="0.953125"/><stop stop-opacity="1" stop-color="rgb(2.69928%, 3.898621%, 5.499268%)" offset="0.96875"/><stop stop-opacity="1" stop-color="rgb(2.69928%, 3.898621%, 5.499268%)" offset="0.992733"/><stop stop-opacity="1" stop-color="rgb(2.69928%, 3.898621%, 5.499268%)" offset="1"/></linearGradient></defs><g clip-path="url(#id1)"><g clip-path="url(#id2)"><path fill="url(#id3)" d="M 20.386719 6.207031 L 20.386719 25.742188 L 44.578125 25.742188 L 44.578125 6.207031 Z M 20.386719 6.207031 " fill-rule="nonzero"/></g></g><g fill="#f20519" fill-opacity="1"><g transform="translate(44.979403, 22.458726)"><g><path d="M 1.421875 0 L 1.421875 -13.515625 L 3.046875 -13.515625 L 3.046875 0 Z M 1.421875 0 "/></g></g></g><g fill="#f20519" fill-opacity="1"><g transform="translate(49.455732, 22.458726)"><g><path d="M 1.328125 0 L 1.328125 -9.578125 L 2.796875 -9.578125 L 2.890625 -7.859375 C 3.203125 -8.460938 3.644531 -8.9375 4.21875 -9.28125 C 4.800781 -9.625 5.457031 -9.796875 6.1875 -9.796875 C 7.320312 -9.796875 8.226562 -9.453125 8.90625 -8.765625 C 9.582031 -8.078125 9.921875 -7.019531 9.921875 -5.59375 L 9.921875 0 L 8.296875 0 L 8.296875 -5.421875 C 8.296875 -7.410156 7.472656 -8.40625 5.828125 -8.40625 C 5.003906 -8.40625 4.316406 -8.109375 3.765625 -7.515625 C 3.222656 -6.921875 2.953125 -6.066406 2.953125 -4.953125 L 2.953125 0 Z M 1.328125 0 "/></g></g></g><g fill="#f20519" fill-opacity="1"><g transform="translate(60.492197, 22.458726)"><g><path d="M 5.109375 0 C 4.234375 0 3.546875 -0.210938 3.046875 -0.640625 C 2.546875 -1.066406 2.296875 -1.832031 2.296875 -2.9375 L 2.296875 -8.203125 L 0.640625 -8.203125 L 0.640625 -9.578125 L 2.296875 -9.578125 L 2.515625 -11.875 L 3.921875 -11.875 L 3.921875 -9.578125 L 6.734375 -9.578125 L 6.734375 -8.203125 L 3.921875 -8.203125 L 3.921875 -2.9375 C 3.921875 -2.332031 4.039062 -1.921875 4.28125 -1.703125 C 4.53125 -1.492188 4.960938 -1.390625 5.578125 -1.390625 L 6.578125 -1.390625 L 6.578125 0 Z M 5.109375 0 "/></g></g></g><g fill="#f20519" fill-opacity="1"><g transform="translate(67.959175, 22.458726)"><g><path d="M 5.640625 0.234375 C 4.722656 0.234375 3.910156 0.0234375 3.203125 -0.390625 C 2.492188 -0.804688 1.9375 -1.390625 1.53125 -2.140625 C 1.125 -2.890625 0.921875 -3.769531 0.921875 -4.78125 C 0.921875 -5.789062 1.117188 -6.671875 1.515625 -7.421875 C 1.921875 -8.171875 2.476562 -8.753906 3.1875 -9.171875 C 3.90625 -9.585938 4.734375 -9.796875 5.671875 -9.796875 C 6.597656 -9.796875 7.398438 -9.585938 8.078125 -9.171875 C 8.753906 -8.753906 9.269531 -8.203125 9.625 -7.515625 C 9.988281 -6.835938 10.171875 -6.109375 10.171875 -5.328125 C 10.171875 -5.179688 10.164062 -5.035156 10.15625 -4.890625 C 10.15625 -4.753906 10.15625 -4.597656 10.15625 -4.421875 L 2.53125 -4.421875 C 2.5625 -3.679688 2.726562 -3.070312 3.03125 -2.59375 C 3.34375 -2.113281 3.722656 -1.75 4.171875 -1.5 C 4.628906 -1.257812 5.117188 -1.140625 5.640625 -1.140625 C 6.304688 -1.140625 6.863281 -1.289062 7.3125 -1.59375 C 7.757812 -1.90625 8.085938 -2.328125 8.296875 -2.859375 L 9.90625 -2.859375 C 9.644531 -1.972656 9.148438 -1.234375 8.421875 -0.640625 C 7.691406 -0.0546875 6.765625 0.234375 5.640625 0.234375 Z M 5.640625 -8.4375 C 4.867188 -8.4375 4.179688 -8.203125 3.578125 -7.734375 C 2.984375 -7.265625 2.640625 -6.578125 2.546875 -5.671875 L 8.5625 -5.671875 C 8.53125 -6.535156 8.234375 -7.210938 7.671875 -7.703125 C 7.117188 -8.191406 6.441406 -8.4375 5.640625 -8.4375 Z M 5.640625 -8.4375 "/></g></g></g><g fill="#f20519" fill-opacity="1"><g transform="translate(78.937756, 22.458726)"><g><path d="M 1.328125 0 L 1.328125 -13.890625 L 2.953125 -13.890625 L 2.953125 0 Z M 1.328125 0 "/></g></g></g><g fill="#f20519" fill-opacity="1"><g transform="translate(83.221141, 22.458726)"><g><path d="M 1.328125 0 L 1.328125 -13.890625 L 2.953125 -13.890625 L 2.953125 0 Z M 1.328125 0 "/></g></g></g><g fill="#f20519" fill-opacity="1"><g transform="translate(87.504526, 22.458726)"><g><path d="M 2.3125 -11.6875 C 1.988281 -11.6875 1.722656 -11.789062 1.515625 -12 C 1.304688 -12.21875 1.203125 -12.488281 1.203125 -12.8125 C 1.203125 -13.125 1.304688 -13.378906 1.515625 -13.578125 C 1.722656 -13.785156 1.988281 -13.890625 2.3125 -13.890625 C 2.625 -13.890625 2.890625 -13.785156 3.109375 -13.578125 C 3.328125 -13.378906 3.4375 -13.125 3.4375 -12.8125 C 3.4375 -12.488281 3.328125 -12.21875 3.109375 -12 C 2.890625 -11.789062 2.625 -11.6875 2.3125 -11.6875 Z M 1.5 0 L 1.5 -9.578125 L 3.125 -9.578125 L 3.125 0 Z M 1.5 0 "/></g></g></g><g fill="#070a0e" fill-opacity="1"><g transform="translate(51.809263, 7.630967)"><g><path d="M 0.539062 0 C 0.683594 0 0.804688 -0.117188 0.804688 -0.257812 L 0.804688 -1.652344 L 1.378906 -0.96875 C 1.480469 -0.859375 1.605469 -0.859375 1.710938 -0.964844 L 2.28125 -1.652344 L 2.28125 -0.257812 C 2.28125 -0.117188 2.40625 0 2.546875 0 C 2.691406 0 2.808594 -0.117188 2.808594 -0.257812 L 2.808594 -2.3125 C 2.808594 -2.457031 2.691406 -2.570312 2.546875 -2.570312 C 2.492188 -2.570312 2.417969 -2.554688 2.355469 -2.496094 L 1.546875 -1.539062 L 0.726562 -2.492188 C 0.675781 -2.550781 0.601562 -2.574219 0.535156 -2.574219 C 0.402344 -2.574219 0.277344 -2.472656 0.277344 -2.3125 L 0.277344 -0.257812 C 0.277344 -0.117188 0.394531 0 0.539062 0 Z M 0.539062 0 "/></g></g></g><g fill="#070a0e" fill-opacity="1"><g transform="translate(54.892725, 7.630967)"><g><path d="M 1.851562 -1.871094 C 1.757812 -1.871094 1.644531 -1.808594 1.644531 -1.609375 C 1.507812 -1.796875 1.3125 -1.890625 1.039062 -1.890625 C 0.570312 -1.890625 0.136719 -1.492188 0.136719 -0.9375 C 0.136719 -0.378906 0.570312 0.0234375 1.035156 0.0234375 C 1.3125 0.0234375 1.507812 -0.0742188 1.644531 -0.253906 L 1.644531 -0.242188 C 1.644531 -0.105469 1.691406 0 1.851562 0 C 1.984375 0 2.050781 -0.105469 2.050781 -0.242188 L 2.050781 -1.632812 C 2.050781 -1.765625 1.957031 -1.871094 1.851562 -1.871094 Z M 1.097656 -0.46875 C 0.84375 -0.46875 0.628906 -0.679688 0.628906 -0.9375 C 0.628906 -1.191406 0.84375 -1.402344 1.097656 -1.402344 C 1.351562 -1.402344 1.558594 -1.199219 1.558594 -0.9375 C 1.558594 -0.664062 1.351562 -0.46875 1.097656 -0.46875 Z M 1.097656 -0.46875 "/></g></g></g><g fill="#070a0e" fill-opacity="1"><g transform="translate(57.157141, 7.630967)"><g><path d="M 1.257812 -1.886719 C 0.996094 -1.886719 0.792969 -1.785156 0.648438 -1.609375 C 0.648438 -1.808594 0.539062 -1.871094 0.445312 -1.871094 C 0.335938 -1.871094 0.242188 -1.765625 0.242188 -1.632812 L 0.242188 -0.242188 C 0.242188 -0.105469 0.308594 0 0.445312 0 C 0.457031 0 0.46875 0 0.476562 0 L 0.511719 0 C 0.652344 0 0.765625 -0.117188 0.765625 -0.257812 L 0.765625 -0.84375 C 0.765625 -1.152344 0.976562 -1.371094 1.257812 -1.371094 C 1.429688 -1.371094 1.523438 -1.5 1.523438 -1.628906 C 1.523438 -1.757812 1.445312 -1.886719 1.257812 -1.886719 Z M 1.257812 -1.886719 "/></g></g></g><g fill="#070a0e" fill-opacity="1"><g transform="translate(58.714933, 7.630967)"><g><path d="M 0.511719 0 C 0.65625 0 0.765625 -0.117188 0.765625 -0.257812 L 0.765625 -0.527344 L 0.902344 -0.652344 L 1.4375 -0.078125 C 1.535156 0.03125 1.703125 0.0273438 1.804688 -0.0664062 C 1.90625 -0.167969 1.902344 -0.335938 1.8125 -0.4375 L 1.261719 -1 L 1.710938 -1.421875 C 1.816406 -1.523438 1.816406 -1.683594 1.714844 -1.78125 C 1.613281 -1.886719 1.460938 -1.898438 1.363281 -1.796875 L 0.765625 -1.210938 L 0.765625 -2.332031 C 0.765625 -2.472656 0.660156 -2.589844 0.511719 -2.589844 C 0.371094 -2.589844 0.25 -2.472656 0.25 -2.332031 L 0.25 -0.257812 C 0.25 -0.113281 0.371094 0 0.511719 0 Z M 0.511719 0 "/></g></g></g><g fill="#070a0e" fill-opacity="1"><g transform="translate(60.678231, 7.630967)"><g><path d="M 1.964844 -1.039062 C 1.964844 -1.480469 1.617188 -1.890625 1.082031 -1.890625 C 0.515625 -1.890625 0.136719 -1.46875 0.136719 -0.9375 C 0.136719 -0.410156 0.515625 0.0273438 1.070312 0.0273438 C 1.40625 0.0273438 1.601562 -0.0859375 1.710938 -0.179688 C 1.816406 -0.265625 1.828125 -0.378906 1.773438 -0.46875 C 1.707031 -0.585938 1.578125 -0.578125 1.464844 -0.519531 C 1.347656 -0.445312 1.246094 -0.414062 1.113281 -0.417969 C 0.910156 -0.421875 0.730469 -0.542969 0.667969 -0.753906 L 1.738281 -0.753906 C 1.890625 -0.753906 1.964844 -0.84375 1.964844 -1.039062 Z M 0.65625 -1.09375 C 0.707031 -1.316406 0.886719 -1.449219 1.101562 -1.449219 C 1.300781 -1.449219 1.488281 -1.3125 1.5 -1.09375 Z M 0.65625 -1.09375 "/></g></g></g><g fill="#070a0e" fill-opacity="1"><g transform="translate(62.778036, 7.630967)"><g><path d="M 0.972656 -1.871094 L 0.972656 -2.167969 C 0.972656 -2.3125 0.847656 -2.425781 0.703125 -2.425781 C 0.5625 -2.425781 0.449219 -2.3125 0.449219 -2.167969 L 0.449219 -1.871094 L 0.308594 -1.871094 C 0.117188 -1.871094 0.0390625 -1.742188 0.0390625 -1.628906 C 0.0390625 -1.488281 0.117188 -1.378906 0.308594 -1.378906 L 0.449219 -1.378906 L 0.449219 -0.273438 C 0.449219 -0.09375 0.582031 0 0.714844 0 C 0.84375 0 0.972656 -0.09375 0.972656 -0.273438 L 0.972656 -1.378906 L 1.121094 -1.378906 C 1.285156 -1.378906 1.382812 -1.488281 1.382812 -1.640625 C 1.382812 -1.761719 1.285156 -1.871094 1.121094 -1.871094 Z M 0.972656 -1.871094 "/></g></g></g><g fill="#070a0e" fill-opacity="1"><g transform="translate(64.199318, 7.630967)"><g/></g></g><g fill="#070a0e" fill-opacity="1"><g transform="translate(65.166914, 7.630967)"><g><path d="M 1.261719 -1.890625 C 1.007812 -1.890625 0.792969 -1.800781 0.648438 -1.625 C 0.636719 -1.8125 0.535156 -1.875 0.445312 -1.875 C 0.335938 -1.875 0.242188 -1.769531 0.242188 -1.632812 L 0.242188 0.40625 C 0.242188 0.558594 0.363281 0.679688 0.511719 0.679688 C 0.664062 0.679688 0.765625 0.558594 0.765625 0.40625 L 0.765625 -0.132812 C 0.894531 -0.0273438 1.054688 0.0234375 1.257812 0.0234375 C 1.730469 0.0234375 2.15625 -0.378906 2.15625 -0.9375 C 2.15625 -1.492188 1.730469 -1.890625 1.261719 -1.890625 Z M 1.199219 -0.46875 C 0.949219 -0.46875 0.734375 -0.679688 0.734375 -0.9375 C 0.734375 -1.191406 0.949219 -1.402344 1.199219 -1.402344 C 1.457031 -1.402344 1.664062 -1.191406 1.664062 -0.9375 C 1.664062 -0.679688 1.457031 -0.46875 1.199219 -0.46875 Z M 1.199219 -0.46875 "/></g></g></g><g fill="#070a0e" fill-opacity="1"><g transform="translate(67.459436, 7.630967)"><g><path d="M 0.25 -0.273438 C 0.25 -0.09375 0.382812 0.00390625 0.511719 0 C 0.636719 -0.00390625 0.765625 -0.09375 0.765625 -0.273438 L 0.765625 -2.328125 C 0.765625 -2.472656 0.640625 -2.589844 0.496094 -2.589844 C 0.355469 -2.589844 0.25 -2.472656 0.25 -2.328125 Z M 0.25 -0.273438 "/></g></g></g><g fill="#070a0e" fill-opacity="1"><g transform="translate(68.475212, 7.630967)"><g><path d="M 1.851562 -1.871094 C 1.757812 -1.871094 1.644531 -1.808594 1.644531 -1.609375 C 1.507812 -1.796875 1.3125 -1.890625 1.039062 -1.890625 C 0.570312 -1.890625 0.136719 -1.492188 0.136719 -0.9375 C 0.136719 -0.378906 0.570312 0.0234375 1.035156 0.0234375 C 1.3125 0.0234375 1.507812 -0.0742188 1.644531 -0.253906 L 1.644531 -0.242188 C 1.644531 -0.105469 1.691406 0 1.851562 0 C 1.984375 0 2.050781 -0.105469 2.050781 -0.242188 L 2.050781 -1.632812 C 2.050781 -1.765625 1.957031 -1.871094 1.851562 -1.871094 Z M 1.097656 -0.46875 C 0.84375 -0.46875 0.628906 -0.679688 0.628906 -0.9375 C 0.628906 -1.191406 0.84375 -1.402344 1.097656 -1.402344 C 1.351562 -1.402344 1.558594 -1.199219 1.558594 -0.9375 C 1.558594 -0.664062 1.351562 -0.46875 1.097656 -0.46875 Z M 1.097656 -0.46875 "/></g></g></g><g fill="#070a0e" fill-opacity="1"><g transform="translate(70.739629, 7.630967)"><g><path d="M 1.808594 -0.582031 C 1.6875 -0.722656 1.53125 -0.660156 1.421875 -0.582031 C 1.328125 -0.503906 1.210938 -0.46875 1.113281 -0.46875 C 0.835938 -0.46875 0.660156 -0.699219 0.660156 -0.9375 C 0.660156 -1.183594 0.84375 -1.398438 1.117188 -1.398438 C 1.230469 -1.398438 1.328125 -1.367188 1.421875 -1.289062 C 1.53125 -1.210938 1.6875 -1.148438 1.804688 -1.289062 C 1.878906 -1.382812 1.890625 -1.53125 1.761719 -1.652344 C 1.605469 -1.800781 1.375 -1.890625 1.117188 -1.890625 C 0.589844 -1.890625 0.136719 -1.5 0.136719 -0.933594 C 0.136719 -0.375 0.578125 0.0234375 1.117188 0.0234375 C 1.371094 0.0234375 1.605469 -0.0664062 1.761719 -0.222656 C 1.890625 -0.335938 1.882812 -0.488281 1.808594 -0.582031 Z M 1.808594 -0.582031 "/></g></g></g><g fill="#070a0e" fill-opacity="1"><g transform="translate(72.74709, 7.630967)"><g><path d="M 1.964844 -1.039062 C 1.964844 -1.480469 1.617188 -1.890625 1.082031 -1.890625 C 0.515625 -1.890625 0.136719 -1.46875 0.136719 -0.9375 C 0.136719 -0.410156 0.515625 0.0273438 1.070312 0.0273438 C 1.40625 0.0273438 1.601562 -0.0859375 1.710938 -0.179688 C 1.816406 -0.265625 1.828125 -0.378906 1.773438 -0.46875 C 1.707031 -0.585938 1.578125 -0.578125 1.464844 -0.519531 C 1.347656 -0.445312 1.246094 -0.414062 1.113281 -0.417969 C 0.910156 -0.421875 0.730469 -0.542969 0.667969 -0.753906 L 1.738281 -0.753906 C 1.890625 -0.753906 1.964844 -0.84375 1.964844 -1.039062 Z M 0.65625 -1.09375 C 0.707031 -1.316406 0.886719 -1.449219 1.101562 -1.449219 C 1.300781 -1.449219 1.488281 -1.3125 1.5 -1.09375 Z M 0.65625 -1.09375 "/></g></g></g></svg>